<svg width="322" height="323" viewBox="0 0 322 323" fill="none" xmlns="http://www.w3.org/2000/svg">
<path d="M160.948 41.7443C129.095 41.7443 99.148 54.1629 76.6243 76.713C54.1006 99.2631 41.6965 129.244 41.6965 161.134C41.6965 193.025 54.1013 223.007 76.6243 245.557C99.1473 268.107 129.095 280.525 160.948 280.525C192.801 280.525 222.747 268.107 245.271 245.557C267.795 223.007 280.199 193.025 280.199 161.134C280.199 129.244 267.795 99.2631 245.271 76.713C222.747 54.1629 192.801 41.7443 160.948 41.7443Z" fill="#1D1D1B"/>
<path d="M241.419 241.701C285.863 197.205 285.863 125.063 241.419 80.567C196.975 36.0711 124.917 36.0713 80.4732 80.5675C36.0291 125.064 36.0288 197.206 80.4727 241.702C124.917 286.198 196.974 286.198 241.419 241.701Z" fill="#008DD0"/>
<path d="M241.419 241.701C285.863 197.205 285.863 125.063 241.419 80.567C196.975 36.0711 124.917 36.0713 80.4732 80.5675C36.0291 125.064 36.0288 197.206 80.4727 241.702C124.917 286.198 196.974 286.198 241.419 241.701Z" fill="#008DD0"/>
<path d="M260.591 201.924C283.091 146.824 256.715 83.8959 201.68 61.3701C146.644 38.8443 83.7895 65.251 61.2901 120.351C38.7906 175.451 65.1664 238.379 120.202 260.905C175.238 283.431 238.092 257.024 260.591 201.924Z" fill="#0A477E"/>
<path d="M234.82 235.095C275.619 194.248 275.619 128.021 234.82 87.174C194.02 46.3267 127.871 46.3267 87.0719 87.174C46.2725 128.021 46.2725 194.248 87.0719 235.095C127.871 275.942 194.02 275.942 234.82 235.095Z" fill="#70C8DD"/>
<path d="M213.184 70.5344C197.817 61.6339 179.977 56.5375 160.948 56.5375V161.134L213.184 70.5344Z" fill="#F2E6B5"/>
<path d="M160.948 56.5382C141.918 56.5382 124.078 61.6346 108.711 70.5351L160.948 161.136V56.5382Z" fill="#70C8DD"/>
<path d="M265.422 161.135V161.134C265.422 142.083 260.332 124.222 251.443 108.838L160.948 161.135H265.422Z" fill="#E83A55"/>
<path d="M108.711 70.5344C92.8511 79.72 79.627 92.9589 70.4521 108.838L160.948 161.134L108.711 70.5344Z" fill="#F6A000"/>
<path d="M70.4522 108.838C61.5635 124.222 56.473 142.083 56.473 161.134L160.948 161.134L70.4522 108.838Z" fill="#FFEC55"/>
<path d="M251.442 108.838C242.267 92.9589 229.043 79.7193 213.183 70.5344L160.948 161.135L251.442 108.838Z" fill="#009A9A"/>
<path d="M213.184 251.736C229.044 242.549 242.267 229.31 251.443 213.432L160.948 161.135L213.184 251.736Z" fill="#B14191"/>
<path d="M160.948 265.731C179.977 265.731 197.817 260.635 213.184 251.736L160.948 161.135V265.731Z" fill="#83C8B8"/>
<path d="M160.948 161.135L251.443 213.432C260.332 198.047 265.422 180.186 265.422 161.135H160.948Z" fill="#F6A000"/>
<path d="M70.4521 213.432C79.627 229.31 92.8518 242.55 108.711 251.736L160.948 161.135L70.4521 213.432Z" fill="#009DD0"/>
<path d="M108.711 251.736C124.078 260.635 141.918 265.731 160.948 265.731V161.135L108.711 251.736Z" fill="#DE97BD"/>
<path d="M56.473 161.135C56.473 180.187 61.5635 198.047 70.4522 213.432L160.948 161.135H56.473Z" fill="#E73186"/>
<path d="M161.725 57.3196C179.424 57.4523 196.814 62.1111 212.121 70.821L161.725 158.228V57.3196ZM160.948 56.5382V161.135L213.184 70.5344C197.817 61.6339 179.977 56.5382 160.948 56.5382Z" fill="white"/>
<path d="M160.17 57.3196V158.228L109.775 70.821C125.08 62.1111 142.471 57.4516 160.17 57.3196ZM160.948 56.5382C141.918 56.5382 124.078 61.6346 108.711 70.5351L160.948 161.136V56.5382Z" fill="white"/>
<path d="M251.156 109.903C259.856 125.226 264.508 142.637 264.641 160.357H163.85L251.156 109.903ZM251.442 108.838L160.948 161.134H265.421C265.422 142.084 260.332 124.222 251.442 108.838Z" fill="white"/>
<path d="M108.429 71.6003L158.823 159.008L71.5182 108.555C80.4738 93.3196 93.2121 80.5671 108.429 71.6003ZM108.711 70.5344C92.8511 79.72 79.627 92.9589 70.4521 108.838L160.948 161.134L108.711 70.5344Z" fill="white"/>
<path d="M70.7391 109.903L158.043 160.357L57.2535 160.356C57.3861 142.637 62.0409 125.226 70.7391 109.903ZM70.4522 108.838C61.5635 124.222 56.473 142.083 56.473 161.134L160.948 161.134L70.4522 108.838Z" fill="white"/>
<path d="M213.466 71.6003C228.683 80.5664 241.421 93.3203 250.377 108.554L163.072 159.008L213.466 71.6003ZM213.184 70.5344L160.948 161.135L251.443 108.838C242.268 92.9589 229.044 79.72 213.184 70.5344Z" fill="white"/>
<path d="M163.072 163.262L250.377 213.716C241.421 228.949 228.682 241.702 213.466 250.669L163.072 163.262ZM160.948 161.135L213.184 251.736C229.044 242.549 242.267 229.31 251.443 213.432L160.948 161.135Z" fill="white"/>
<path d="M161.725 164.042L212.121 251.449C196.814 260.159 179.424 264.817 161.725 264.95V164.042ZM160.948 161.135V265.731C179.977 265.731 197.817 260.635 213.184 251.736L160.948 161.135Z" fill="white"/>
<path d="M264.641 161.914C264.508 179.633 259.856 197.044 251.156 212.368L163.85 161.914H264.641ZM265.422 161.135H160.948L251.443 213.432C260.332 198.047 265.422 180.187 265.422 161.135Z" fill="white"/>
<path d="M158.823 163.262L108.429 250.669C93.2114 241.702 80.4738 228.95 71.5175 213.716L158.823 163.262ZM160.948 161.135L70.4521 213.432C79.627 229.31 92.8518 242.55 108.711 251.736L160.948 161.135Z" fill="white"/>
<path d="M160.17 164.042V264.95C142.47 264.817 125.081 260.159 109.774 251.449L160.17 164.042ZM160.948 161.135L108.711 251.736C124.078 260.635 141.918 265.731 160.948 265.731V161.135Z" fill="white"/>
<path d="M158.044 161.914L70.7391 212.367C62.0401 197.043 57.3861 179.633 57.2535 161.913H158.044V161.914ZM160.948 161.135H56.473C56.473 180.187 61.5635 198.047 70.4522 213.432L160.948 161.135Z" fill="white"/>
<path d="M203.917 161.215C203.917 184.974 184.678 204.235 160.948 204.235C137.217 204.235 117.979 184.973 117.979 161.215C117.979 137.456 137.217 118.196 160.948 118.196C184.678 118.196 203.917 137.456 203.917 161.215Z" fill="#706F6F"/>
<path d="M201.129 161.134C201.129 183.352 183.139 201.364 160.948 201.364C138.755 201.364 120.766 183.352 120.766 161.134C120.766 138.917 138.756 120.905 160.948 120.905C183.139 120.905 201.129 138.917 201.129 161.134Z" fill="#1D3B79"/>
<path d="M201.089 162.773C201.11 162.229 201.129 161.684 201.129 161.134C201.129 138.917 183.139 120.905 160.948 120.905C138.755 120.905 120.766 138.917 120.766 161.134C120.766 161.684 120.785 162.229 120.807 162.773H201.089Z" fill="#00549C"/>
<path d="M192.835 161.134C192.835 178.766 178.557 193.059 160.948 193.059C143.336 193.059 129.06 178.766 129.06 161.134C129.06 143.504 143.336 129.211 160.948 129.211C178.557 129.21 192.835 143.504 192.835 161.134Z" fill="#241954"/>
<path d="M190.502 161.134C190.502 177.476 177.269 190.723 160.948 190.723C144.626 190.723 131.395 177.476 131.395 161.134C131.395 144.794 144.626 131.546 160.948 131.546C177.269 131.546 190.502 144.793 190.502 161.134Z" fill="#6B9ED5"/>
<path d="M161.572 136.599L168.467 150.588L183.886 152.83L172.729 163.718L175.363 179.093L161.572 171.834L147.782 179.093L150.415 163.718L139.258 152.83L154.678 150.588L161.572 136.599Z" fill="#F9B105"/>
<g opacity="0.4">
<path d="M161.573 160.088H161.572V160.089H161.573V160.088Z" fill="#F39700"/>
<path d="M168.467 150.588L161.572 136.599V160.088L168.467 150.588Z" fill="#D95915"/>
<path d="M161.572 160.089V160.09L172.729 163.718L183.886 152.83L161.572 160.089Z" fill="#D95915"/>
<path d="M161.572 171.834L175.363 179.093L161.572 160.09V171.834Z" fill="#D95915"/>
<path d="M150.415 163.718L147.782 179.093L161.572 160.09L150.415 163.718Z" fill="#D95915"/>
<path d="M161.572 160.089L154.678 150.588L139.258 152.83L161.572 160.09V160.089Z" fill="#D95915"/>
</g>
<path opacity="0.5" d="M161.362 137.482L160.979 153.721L161.455 159.567L161.44 155.88L161.362 137.482Z" fill="white"/>
<path opacity="0.5" d="M162.25 159.567L183.007 152.893L167.899 157.343L162.25 159.567Z" fill="white"/>
<path opacity="0.5" d="M162.059 160.436L175.009 178.125L166.757 166.113L162.059 160.436Z" fill="white"/>
<path opacity="0.5" d="M161.34 160.69L148.792 178.316L157.615 166.685L161.34 160.69Z" fill="white"/>
<path opacity="0.5" d="M140.477 153.402L160.916 160.076L155.012 158.741L140.477 153.402Z" fill="white"/>
<path d="M121.4 161.8C121.4 161.8 123.149 130.33 151.147 123.582C151.147 123.582 169.812 118.132 183.034 129.292C183.034 129.292 135.204 107.101 121.4 161.8Z" fill="#008FCD"/>
<path opacity="0.6" d="M158.536 133.769C158.536 133.769 143.759 134.936 135.593 150.898C135.593 150.898 127.038 169.001 144.537 183.796C144.537 183.796 136.379 172.169 144.926 157.906C154.259 142.334 175.841 140.192 185.563 146.811C185.563 146.811 176.812 131.433 158.536 133.769Z" fill="#F0F8FD"/>
<path d="M160.272 46.497H146.434L160.948 89.1923L175.462 46.497H160.272Z" fill="#706F6F"/>
<path d="M160.948 84.52L145.331 38.5805H176.565L160.948 84.52Z" fill="#E53818"/>
<path d="M160.948 84.52L160.221 38.5805H176.565L160.948 84.52Z" fill="#AC2E0F"/>
<path d="M147.064 40.5273L159.702 78.2913L158.73 71.6723L147.064 40.5273Z" fill="#E85045"/>
<path d="M159.702 25.9113L163.529 33.6753L172.088 34.9205L165.895 40.9629L167.357 49.4977L159.702 45.4692L152.048 49.4977L153.509 40.9629L147.317 34.9205L155.876 33.6753L159.702 25.9113Z" fill="#F9B105"/>
<g opacity="0.4">
<path d="M163.529 33.6753L159.702 25.9113V38.949L163.529 33.6753Z" fill="#D95915"/>
<path d="M159.702 38.949L165.895 40.9629L172.088 34.9205L159.702 38.949Z" fill="#D95915"/>
<path d="M159.702 45.4692L167.357 49.4977L159.702 38.949V45.4692Z" fill="#D95915"/>
<path d="M153.509 40.9629L152.048 49.4977L159.702 38.949L153.509 40.9629Z" fill="#D95915"/>
<path d="M159.702 38.949L155.876 33.6753L147.317 34.9205L159.702 38.949Z" fill="#D95915"/>
</g>
<path opacity="0.5" d="M159.585 26.4012L159.373 35.4146L159.637 38.6589L159.628 36.6132L159.585 26.4012Z" fill="white"/>
<path opacity="0.5" d="M160.078 38.6589L171.599 34.9551L163.214 37.425L160.078 38.6589Z" fill="white"/>
<path opacity="0.5" d="M159.973 39.141L167.161 48.9605L162.579 42.2928L159.973 39.141Z" fill="white"/>
<path opacity="0.5" d="M159.573 39.2829L152.608 49.0657L157.505 42.6111L159.573 39.2829Z" fill="white"/>
<path opacity="0.5" d="M147.992 35.2368L159.338 38.9419L156.059 38.2008L147.992 35.2368Z" fill="white"/>
</svg>
