<svg width="12" height="14" viewBox="0 0 12 14" fill="none" xmlns="http://www.w3.org/2000/svg">
<rect x="1.89166" y="2.2439" width="2.19934" height="2.43677" transform="rotate(-30.6719 1.89166 2.2439)" fill="#5A9929"/>
<rect x="1.2431" y="5.4618" width="2.19934" height="2.43677" transform="rotate(-30.6719 1.2431 5.4618)" fill="#5A9929"/>
<rect x="0.497253" y="4.20417" width="2.19934" height="2.43677" transform="rotate(-30.6719 0.497253 4.20417)" fill="#5A9929"/>
<rect x="2.48611" y="7.55762" width="2.19934" height="2.43677" transform="rotate(-30.6719 2.48611 7.55762)" fill="#5A9929"/>
<rect x="3.72919" y="9.65351" width="2.19934" height="2.43677" transform="rotate(-30.6719 3.72919 9.65351)" fill="#5A9929"/>
<rect x="4.47501" y="10.911" width="2.19934" height="2.43677" transform="rotate(-30.6719 4.47501 10.911)" fill="#5A9929"/>
<rect x="6.86386" y="10.6274" width="2.19934" height="2.43677" transform="rotate(-30.6719 6.86386 10.6274)" fill="#5A9929"/>
<rect x="8.25833" y="8.66712" width="2.19934" height="2.43677" transform="rotate(-30.6719 8.25833 8.66712)" fill="#5A9929"/>
<path d="M4.28058 1.96033L6.17224 0.838403L7.41528 2.93428L5.52363 4.05621L4.28058 1.96033Z" fill="#5A9929"/>
</svg>
