<svg width="123" height="105" viewBox="0 0 123 105" fill="none" xmlns="http://www.w3.org/2000/svg">
<path d="M85.1646 30.0707C85.1646 30.0707 80.2786 28.2363 81.7253 24.9781C83.1719 21.72 86.2564 22.5961 87.0207 22.7056C87.7849 22.8152 91.5791 24.4579 90.6237 27.3876C89.6683 30.3172 87.6212 30.5362 85.1646 30.0707Z" fill="#FBFDFA"/>
<path d="M54.2255 12.7258C54.2255 12.7258 59.6104 14.0423 58.2015 17.7014C56.7925 21.3604 53.1447 20.6635 53.1447 20.6635C53.1447 20.6635 47.3351 19.7729 48.8984 15.7073C50.4618 11.6417 54.2255 12.7258 54.2255 12.7258Z" fill="#FBFDFA"/>
<path d="M65.9062 38.8618C65.9062 38.8618 70.7701 41.3012 70.1138 43.4696C69.4576 45.6379 67.9521 45.7154 67.9521 45.7154C67.9521 45.7154 65.636 46.606 62.8953 44.7087C60.1545 42.8114 59.9616 41.2625 59.9616 41.2625C59.9616 41.2625 59.7685 37.9325 65.9062 38.8618Z" fill="#1F4A5B"/>
<path d="M60.263 39.5972C60.263 39.5972 63.3898 38.1259 64.625 39.0164C65.8602 39.907 62.8879 40.7588 62.8879 40.7588C62.8879 40.7588 58.6417 41.6881 60.263 39.5972Z" fill="white"/>
<path d="M119.911 63.689C119.911 63.689 122.641 65.2223 122.422 67.0567C122.204 68.891 121.085 70.2327 119.447 69.5756C117.809 68.9185 116.008 67.5769 116.008 67.5769C116.008 67.5769 115.052 62.539 119.911 63.689Z" fill="#086565"/>
<path d="M1.64138 54.2095C1.64138 54.2095 4.55588 53.0691 5.82955 54.4037C7.10321 55.7382 7.42505 57.4574 5.87874 58.3087C4.3324 59.1599 2.15496 59.7031 2.15496 59.7031C2.15496 59.7031 -2.33063 57.2426 1.64138 54.2095Z" fill="#086565"/>
<path d="M24.8709 71.6236C24.8709 71.6236 38.2274 82.4654 56.139 85.4857C74.0506 88.5061 92.7336 84.7113 92.7336 84.7113C92.7336 84.7113 74.2047 92.5329 56.5247 88.1188C38.8447 83.7047 27.0334 77.5863 24.8709 71.6236Z" fill="#0F4638"/>
<path d="M54.3733 91.04C54.3733 91.04 57.1302 91.8613 56.0111 93.9696C54.892 96.0778 53.3907 95.9136 53.3907 95.9136C53.3907 95.9136 51.0979 95.2017 51.6984 93.2851C52.2989 91.3686 53.1724 91.1496 54.3733 91.04Z" fill="#0F4638"/>
<path d="M49.5064 4.8258C49.5064 4.8258 53.8737 3.67586 54.2012 3.73063C54.5288 3.78539 52.9457 0.00704757 52.9457 0.00704757C52.9457 0.00704757 50.8712 -0.157231 50.3799 1.10222C49.8885 2.36163 49.5064 4.8258 49.5064 4.8258Z" fill="#E9CBA8"/>
<path d="M53.1166 99.9757C53.1166 99.9757 55.8735 100.797 54.7543 102.905C53.6352 105.014 52.1339 104.849 52.1339 104.849C52.1339 104.849 49.8412 104.137 50.4416 102.221C51.0421 100.304 51.9156 100.085 53.1166 99.9757Z" fill="#0F4638"/>
</svg>
