<svg width="258" height="219" viewBox="0 0 258 219" fill="none" xmlns="http://www.w3.org/2000/svg">
<mask id="path-1-inside-1_1_600" fill="white">
<path d="M71.5451 18.9318C70.6242 18.9726 69.6882 19.2002 68.974 19.6031C64.7674 21.9762 65.2122 28.3613 69.6961 29.9657C72.5842 30.9991 75.4043 29.8714 76.8096 27.121C78.1541 24.4896 76.8478 20.8582 74.0252 19.3795C73.3717 19.0372 72.466 18.8911 71.5451 18.9318ZM71.5509 20.8083C72.6832 20.7713 73.8564 21.298 74.7199 22.4C75.876 23.8753 75.2594 27.169 73.6706 28.005C70.2028 29.8297 66.5876 25.9552 68.6263 22.5992C69.3268 21.446 70.4186 20.8454 71.5509 20.8083ZM197.168 34.4764C195.916 34.4575 194.654 34.7979 193.62 35.5194C189.405 38.4588 190.736 45.2569 195.759 46.4471C197.15 46.7769 197.474 46.7754 198.711 46.4305C200.086 46.0472 201.691 44.6541 202.428 43.2033C203.467 41.1588 203.017 37.9638 201.452 36.28C200.373 35.1183 198.778 34.5006 197.168 34.4764ZM196.889 36.243C197.704 36.2057 198.526 36.4135 199.242 36.8938C201.982 38.731 201.796 42.7033 198.901 44.185C197.147 45.0829 195.129 44.6731 193.711 43.1306C192.719 42.0515 192.553 39.6632 193.377 38.345C194.189 37.0482 195.53 36.3052 196.889 36.243ZM84.1479 37.9055L83.0088 38.2791C81.0466 38.923 74.4833 41.9871 71.8642 43.4818C57.4137 51.7286 46.2579 63.3295 39.1151 77.5352C34.6038 86.5081 32.2198 94.7441 30.9618 105.703C30.582 109.012 30.509 111.496 30.6282 117.088C30.8119 125.71 31.5879 131.146 33.7838 139.198C34.2764 141.004 34.7853 142.482 34.9146 142.482C35.5135 142.482 37.6637 140.496 37.6252 139.978C37.6023 139.669 37.1793 137.704 36.6854 135.611C35.4349 130.31 34.6577 125.535 34.4283 121.742L34.2328 118.513L34.9319 118.67C35.5264 118.803 44.7156 120.006 45.1412 120.006C45.2219 120.006 45.3626 121.878 45.4545 124.166C45.6217 128.331 46.1448 132.804 46.5121 133.213C46.6196 133.332 47.1434 133.065 47.676 132.619L48.6445 131.807L48.3178 128.445C47.9303 124.461 47.8898 120.298 48.2389 120.298C48.3754 120.298 50.8946 120.554 53.837 120.866C62.3829 121.774 73.3405 122.624 76.5293 122.63L78.167 122.633L78.3427 121.976C78.6451 120.844 78.5428 120.075 78.0657 119.891C77.8127 119.794 76.5369 119.713 75.2303 119.712C72.5948 119.71 64.5483 119.132 54.868 118.25C51.3727 117.931 48.3971 117.671 48.2555 117.671C47.65 117.671 48.9646 107.239 50.3523 101.033C51.5101 95.855 52.9446 91.0221 54.3586 87.5343L55.5041 84.7087L54.9208 83.1651C54.6 82.3163 54.2849 81.5685 54.2204 81.5033C53.9992 81.2786 51.8171 86.2947 50.6133 89.7953C48.2983 96.5277 46.641 104.469 45.806 112.833C45.5668 115.228 45.3385 117.21 45.2992 117.237C45.1535 117.338 34.2361 116.223 34.1081 116.095C33.8368 115.822 34.6332 105.936 35.1957 102.596C37.2498 90.3965 41.6009 79.6559 48.5089 69.7327C51.0415 66.0948 55.7343 60.56 57.1143 59.5841C57.4549 59.3433 58.5471 58.3328 59.5415 57.3385C64.1776 52.7033 75.0973 45.3841 80.998 42.9561C84.2218 41.6297 84.9241 41.0862 84.9241 39.9172C84.9241 39.397 84.7497 38.7321 84.5364 38.4393L84.1479 37.9055ZM34.0306 41.6424C31.8175 41.632 30.6593 42.0426 28.5993 43.568C26.4406 45.1664 25.2545 47.6386 25.2545 50.5404C25.2545 52.3451 25.392 52.9198 26.2102 54.5379C27.3268 56.746 29.0131 58.2692 31.215 59.0591C35.3515 60.543 40.1077 58.4623 41.9929 54.3437C42.876 52.4143 42.8398 48.8943 41.9152 46.8194C40.5528 43.7622 37.3482 41.6581 34.0306 41.6424ZM34.1796 43.6312C35.3081 43.6546 36.424 43.9583 37.3976 44.5612C39.0621 45.5918 40.556 47.8386 40.839 49.7377C41.2431 52.4491 39.3638 55.8206 36.7933 56.9956C35.2802 57.6874 32.7779 57.6856 31.2563 56.9918C29.7768 56.3172 27.8401 54.1329 27.3927 52.6341C26.6724 50.2209 27.297 47.6023 29.0309 45.7645C30.3825 44.332 32.2986 43.5923 34.1796 43.6312ZM175.334 44.0042C175.304 44.0057 175.283 44.0161 175.271 44.0355C175.201 44.1573 174.921 45.0338 174.649 45.9835L174.155 47.7104L175.121 48.4647C180.165 52.4036 187.117 59.2642 190.528 63.6678C200.806 76.9403 206.977 94.1876 207.838 112.049L208.025 115.917H207.034C206.489 115.917 204.016 116.181 201.536 116.502C196.775 117.119 188.808 117.96 187.727 117.96H187.085L186.902 114.239C186.694 109.997 186.051 104.801 185.234 100.745C184.926 99.2163 184.673 97.8672 184.672 97.7467C184.667 97.3072 184.075 97.5469 183.175 98.3535L182.255 99.1793L182.872 102.951C183.655 107.731 184.015 110.84 184.262 114.937L184.457 118.189L180.793 118.401C178.778 118.519 176.634 118.524 176.028 118.414L174.926 118.213L176.918 120.24L178.91 122.267L179.681 121.885C180.505 121.476 184.284 120.884 184.524 121.126C184.604 121.205 184.669 121.872 184.669 122.608V123.946L185.759 124.866L186.847 125.785L186.931 123.348L187.015 120.912L188.24 120.77C188.913 120.693 193.451 120.211 198.323 119.7C203.195 119.189 207.35 118.706 207.556 118.626C207.836 118.519 207.931 118.916 207.937 120.191L207.944 121.901L209.873 119.918L211.802 117.935L211.604 113.35C210.607 90.1496 203.612 72.1632 189.346 56.1148C185.966 52.313 176.264 43.9581 175.334 44.0042ZM221.893 54.9864C219.619 55.1441 217.963 55.9266 216.311 57.6248C213.956 60.0451 213.175 63.5263 214.28 66.6672C215.301 69.5672 217.174 71.4266 219.951 72.2984C223.313 73.3534 227.409 72.0022 229.459 69.1625C233.852 63.075 229.262 54.4747 221.893 54.9864ZM222.475 56.9688C228.718 56.9688 231.586 64.744 226.904 68.9772C226.25 69.5686 225.214 70.1922 224.603 70.3626C219.94 71.6623 215.786 68.5775 215.786 63.8155C215.786 61.8717 216.25 60.6536 217.564 59.1513C218.84 57.6921 220.468 56.9688 222.475 56.9688ZM24.0875 90.9616L22.2971 90.9749C20.1942 90.9893 18.9805 91.5438 17.8782 92.9944C15.8564 95.6551 16.9984 99.6066 20.2131 101.072C21.6493 101.727 22.675 101.751 24.0743 101.164C26.261 100.247 27.4107 98.5575 27.4445 96.2114C27.4699 94.4464 26.8127 93.1719 25.205 91.8678L24.0875 90.9616ZM22.1435 92.5385C24.3889 92.4664 26.3646 94.8776 25.3119 97.6569C25.1559 98.0687 24.5998 98.668 24.076 98.9885C20.3222 101.286 16.6842 96.5064 19.9105 93.5163C20.6165 92.8621 21.3951 92.5625 22.1435 92.5385ZM149.214 117.088L148.913 117.652C148.564 118.306 148.525 119.42 148.834 119.901C148.962 120.099 150.69 120.346 153.119 120.513C155.359 120.667 157.822 120.813 158.594 120.837L159.997 120.882L161.583 119.642L163.168 118.401L160.906 118.178C159.663 118.056 156.817 117.955 154.582 117.95C151.504 117.947 150.36 117.841 149.866 117.516L149.214 117.088ZM17.215 134.374C16.1096 134.423 15.005 134.649 14.2899 135.02C10.755 136.855 9.31942 141.211 11.1087 144.672C12.0137 146.422 12.5423 146.934 14.2573 147.715C15.8544 148.442 18.7502 148.515 20.2961 147.868C21.6737 147.291 23.149 145.873 23.9255 144.38C24.7827 142.732 24.7809 139.844 23.9223 138.208C23.0806 136.605 21.2236 135.049 19.6128 134.596C19.2256 134.487 18.7786 134.418 18.3063 134.386C17.9521 134.362 17.5834 134.358 17.215 134.374ZM17.4671 136.224C20.1123 136.122 22.6857 137.988 22.6857 141.166C22.6857 143.337 21.5917 145.071 19.5741 146.096C17.6765 147.061 14.9675 146.484 13.5717 144.819C12.0286 142.979 11.8721 140.588 13.1693 138.675C14.2676 137.055 15.88 136.285 17.4671 136.224ZM227.239 152.389C225.739 152.332 224.125 152.689 223.086 153.412C221.179 154.738 220.316 156.474 220.316 158.975C220.316 160.686 220.448 161.266 221.095 162.373C221.953 163.844 222.883 164.57 224.655 165.153C229.697 166.813 234.348 162.197 232.845 157.024C232.273 155.054 231.271 153.77 229.668 152.949C228.998 152.606 228.139 152.423 227.239 152.389ZM226.929 154.16C228.336 154.214 229.724 154.897 230.558 156.348C231.911 158.703 230.962 162.146 228.698 163.095C227.304 163.68 225.41 163.6 224.281 162.908C223.091 162.18 222.208 160.309 222.196 158.507C222.182 155.733 224.583 154.072 226.929 154.16ZM174.683 157.139C174.72 157.171 174.756 157.202 174.791 157.231C174.819 157.215 174.847 157.2 174.874 157.184C174.807 157.17 174.743 157.155 174.683 157.139ZM47.4517 160.738C47.2236 160.748 46.8489 161.005 46.1355 161.592C45.3968 162.2 44.7926 162.849 44.7926 163.036C44.7926 163.222 46.0668 165.078 47.6241 167.16C50.9069 171.549 58.1717 179.037 62.0857 182.064L64.6931 184.081L48.573 184.236V185.234C48.573 185.783 48.4411 186.581 48.2794 187.008L47.9853 187.784L46.9111 186.838C46.3204 186.317 45.1111 185.549 44.2242 185.132L42.6113 184.372L26.8473 184.192L26.6798 185.742C26.5877 186.594 26.1148 190.312 25.6292 194.004C25.1437 197.697 24.345 203.907 23.8541 207.805L22.9614 214.891L24.3355 216.489L25.7102 218.086L33.1433 218.08C40.8305 218.075 43.4465 217.778 45.0405 216.73L45.7269 216.278L47.583 218.084H58.1501L58.343 216.624C58.4491 215.822 58.6412 215.165 58.7696 215.165C58.898 215.165 59.6227 215.822 60.3799 216.624L61.7565 218.084H72.6317L73.1182 214.362C73.3859 212.315 73.6824 210.201 73.7772 209.663L73.9497 208.686L74.8029 210.471C75.835 212.629 78.9092 215.845 81.0294 216.985C81.8459 217.423 83.2196 217.978 84.0826 218.217V218.22C85.8658 218.714 87.2816 218.612 90.4505 217.762C92.7498 217.145 94.5989 216.211 95.4991 215.213L96.0397 214.614L97.534 215.746C102.137 219.233 108.581 219.461 113.341 216.306L114.567 215.493L115.705 216.79L116.842 218.087H138.143V216.628C138.143 215.825 138.262 215.168 138.409 215.168C138.555 215.168 139.077 215.825 139.569 216.628L140.464 218.087H227.12L227.256 217.43C227.33 217.069 228.005 210.25 228.757 202.275L230.124 187.777L228.846 186.006L227.567 184.235L221.343 184.304L215.118 184.372L214.117 186.78C213.567 188.104 213.013 189.188 212.886 189.188C212.76 189.188 212.573 188.564 212.471 187.802C212.368 187.039 212.211 185.923 212.121 185.321L211.958 184.226H194.389C184.726 184.226 176.82 184.126 176.82 184.004C176.82 183.882 177.049 183.638 177.329 183.462C180.699 181.338 188.679 174.186 193.322 169.13L196.01 166.203L194.921 165.476C194.323 165.077 192.851 163.854 191.652 162.761C190.878 162.055 190.446 161.685 190.391 161.677C190.391 161.677 190.39 161.677 190.389 161.677H190.387L190.386 161.677L190.385 161.679L190.385 161.68C190.385 161.707 190.527 161.87 190.82 162.174L192.17 163.577L191.402 164.468C184.837 172.081 178.771 177.604 172.208 181.946C170.552 183.042 168.905 184.013 168.549 184.102C168.03 184.233 167.738 184.781 167.072 186.873C166.615 188.307 166.14 189.481 166.016 189.481C165.735 189.481 165.278 187.773 165.019 185.759L164.822 184.226H141.699L141.5 185.828C141.391 186.708 141.183 187.501 141.04 187.59C140.896 187.679 140.381 186.959 139.893 185.989L139.007 184.226H118.144L117.938 186.435C117.805 187.864 117.593 188.697 117.339 188.795C117.115 188.881 116.224 188.209 115.258 187.222C114.267 186.211 112.847 185.145 111.823 184.643L110.079 183.789H107.171C103.414 183.789 101.014 184.625 97.4086 187.189C97.0428 187.449 96.5884 187.245 95.1195 186.16C91.6268 183.579 87.4838 183.004 83.2292 184.511L81.3897 185.163L80.7218 184.533L80.0539 183.902L76.0877 183.96L72.1216 184.018L69.6747 182.384C63.2391 178.085 55.3018 170.694 50.351 164.392C49.0332 162.715 47.8474 161.15 47.7162 160.915C47.6499 160.796 47.5712 160.733 47.4517 160.738ZM87.5419 186.323C89.698 186.313 91.9553 187.019 93.2705 188.16L94.3771 189.122L92.3459 192.099C90.2015 195.241 89.9165 195.556 89.6188 195.118C88.7213 193.797 86.1088 193.444 84.8109 194.469C83.3605 195.614 82.7881 197.209 82.6556 200.47C82.5159 203.91 82.834 205.189 84.0947 206.254C85.1854 207.175 86.9469 207.239 88.4791 206.415C89.0693 206.098 89.608 205.934 89.6768 206.05C89.7455 206.167 90.2262 207.292 90.7452 208.55C91.846 211.218 91.8362 211.241 89.142 212.242C86.8991 213.076 83.2595 213.287 81.4095 212.688C77.237 211.339 74.8261 206.041 75.5841 199.887C76.5428 192.103 80.7197 186.991 86.6275 186.372C86.9284 186.34 87.2339 186.325 87.5419 186.323ZM106.736 186.462C109.584 186.41 111.569 187.095 113.21 188.698C116.145 191.566 117.096 196.63 115.753 202.251C114.513 207.441 111.727 211.036 107.827 212.477C104.919 213.552 101.587 213.483 99.2764 212.3C97.815 211.551 96.0939 209.655 95.2874 207.904L94.6659 206.555L94.6709 202.323C94.6733 198.773 94.7782 197.759 95.3184 196.038C97.2144 189.996 101.309 186.562 106.736 186.462ZM76.5302 186.927L76.3781 187.984C76.2944 188.565 76.078 189.993 75.8967 191.157L75.5669 193.274H73.1212C71.6883 193.274 70.6755 193.394 70.6755 193.565C70.6755 193.725 70.0871 198.027 69.3677 203.124C68.6485 208.22 68.0592 212.423 68.0586 212.466C68.0545 212.506 66.5997 212.539 64.8221 212.539H61.5863L61.7843 211.298C61.8932 210.616 62.4348 206.642 62.9883 202.468C63.5419 198.294 64.0688 194.517 64.1593 194.076L64.3242 193.274H59.0318L59.1763 192.617C59.2557 192.255 59.4566 190.918 59.6226 189.645C59.7886 188.371 59.9624 187.291 60.0085 187.245C60.0546 187.199 63.7908 187.108 68.3114 187.043L76.5302 186.927ZM178.327 186.994L178.148 188.892C178.049 189.935 177.781 192.759 177.552 195.167C177.324 197.576 176.997 201.516 176.827 203.924C176.656 206.333 176.439 209.255 176.345 210.419L176.172 212.535H169.588L169.725 211.587C170.092 209.043 171.226 199.537 171.17 199.475C171.135 199.436 169.939 202.354 168.511 205.961L165.916 212.519L160.354 212.539L159.69 206.594C159.324 203.325 158.931 200.204 158.817 199.661L158.61 198.674L158.402 200.425C158.287 201.388 157.783 204.508 157.282 207.357L156.37 212.535H149.918L152.3 200.52C153.61 193.911 154.758 188.197 154.852 187.822L155.022 187.14H162.235L162.394 187.943C162.52 188.576 163.437 196.188 164.108 202.174L164.207 203.049L164.441 202.465C164.57 202.144 165.917 198.664 167.435 194.73C168.952 190.797 170.309 187.456 170.45 187.306C170.59 187.156 172.42 187.027 174.516 187.014L178.327 186.994ZM29.5339 186.998H35.3473C40.2591 186.998 41.3717 187.08 42.5231 187.526C44.1995 188.175 45.8569 189.951 46.1251 191.386C46.6653 194.276 45.4186 197.382 43.1917 198.692L41.8934 199.455L43.1114 200.101C47.4438 202.401 45.9939 209.633 40.7848 211.707L39.1248 212.368L25.8695 212.587L26.021 211.906C26.1044 211.532 26.831 206.365 27.6351 200.425C28.4392 194.485 29.1954 189.034 29.3154 188.311L29.5339 186.998ZM131.218 187.125L134.424 187.208L137.629 187.29L139.883 193.539L142.136 199.788L142.319 198.793C142.554 197.512 143.963 187.758 143.963 187.409C143.963 187.263 145.47 187.144 147.313 187.144H150.663L150.514 187.8C150.433 188.161 149.839 192.135 149.195 196.631C147.492 208.517 147.151 210.841 146.979 211.736L146.825 212.539H140.554L139.908 210.86C139.552 209.937 138.545 207.146 137.67 204.658C136.795 202.169 136.003 199.936 135.909 199.695C135.814 199.454 135.339 202.245 134.852 205.898L133.965 212.539H127.376L127.518 211.882C127.677 211.142 129.034 201.909 130.146 194.003C130.552 191.114 130.959 188.384 131.051 187.937L131.218 187.125ZM225.177 187.128L225.001 188.237C224.702 190.109 223.709 201.286 223.328 207.066L222.967 212.539H216.376V211.985C216.376 211.68 216.703 208.889 217.102 205.782C217.502 202.675 217.827 200.002 217.822 199.842C217.818 199.681 216.578 202.44 215.067 205.972L212.318 212.394L209.609 212.476L206.899 212.559L206.549 209.411C206.357 207.68 205.979 204.622 205.709 202.615L205.22 198.966L204.429 203.636C203.994 206.205 203.483 209.259 203.292 210.423L202.946 212.539H196.087L196.765 209.693C197.137 208.128 198.458 202.414 199.7 196.995L201.96 187.144H209.059L209.248 188.969C210.225 198.432 210.795 202.981 210.957 202.614C211.062 202.374 212.441 198.827 214.02 194.733L216.891 187.29L221.034 187.209L225.177 187.128ZM50.9645 187.144H57.4694L55.6573 199.768C54.6604 206.712 53.8372 212.424 53.8287 212.465C53.82 212.505 52.3618 212.538 50.5884 212.538H47.364L47.5397 211.444C47.6361 210.842 48.3056 205.949 49.0278 200.571C49.7499 195.193 50.4811 189.971 50.6527 188.968L50.9645 187.144ZM127.399 187.144L127.248 187.8C127.107 188.413 125.131 201.382 124.002 209.109L123.5 212.538H117.032L117.514 209.109C117.779 207.222 118.572 201.509 119.275 196.412L120.554 187.144H123.977L127.399 187.144ZM190.819 187.211L197.918 187.289L197.507 190.136L197.096 192.982H189.04V193.525C189.04 193.823 188.957 194.677 188.855 195.422L188.67 196.776H192.054C193.915 196.776 195.438 196.875 195.438 196.995C195.437 197.116 195.241 198.33 195.002 199.695C194.763 201.06 194.566 202.209 194.566 202.249C194.566 202.289 193.01 202.322 191.109 202.322H187.653L187.447 203.973C187.334 204.881 187.174 205.801 187.092 206.016C186.971 206.332 187.683 206.409 190.754 206.409H194.565V206.9C194.565 207.17 194.418 208.549 194.237 209.965L193.908 212.539H186.967C181.587 212.539 180.025 212.456 180.025 212.171C180.025 211.439 183.47 187.383 183.593 187.259C183.662 187.189 186.914 187.168 190.819 187.211ZM35.2855 192.398L35.1041 193.945C35.0044 194.797 34.839 195.913 34.7367 196.427L34.5507 197.359L35.5326 197.358C37.0691 197.356 38.6357 196.814 39.1224 196.116C39.3671 195.766 39.5675 194.99 39.5675 194.392C39.5675 192.967 38.7719 192.398 36.7799 192.398L35.2855 192.398ZM106.141 193.194C103.727 193.194 101.928 196.282 101.604 200.977C101.409 203.822 101.814 205.563 102.865 206.393C105.699 208.631 109.078 204.198 109.07 198.247C109.066 194.6 108.251 193.194 106.141 193.194ZM33.9179 202.176L33.5619 204.219C33.3659 205.343 33.1974 206.492 33.1875 206.773C33.1729 207.191 33.4217 207.283 34.5508 207.282C36.4601 207.28 38.0132 206.797 38.5412 206.04C39.1441 205.176 39.1017 203.698 38.4508 202.891C37.9927 202.323 37.627 202.224 35.9166 202.202L33.9179 202.176Z"/>
</mask>
<path d="M71.5451 18.9318C70.6242 18.9726 69.6882 19.2002 68.974 19.6031C64.7674 21.9762 65.2122 28.3613 69.6961 29.9657C72.5842 30.9991 75.4043 29.8714 76.8096 27.121C78.1541 24.4896 76.8478 20.8582 74.0252 19.3795C73.3717 19.0372 72.466 18.8911 71.5451 18.9318ZM71.5509 20.8083C72.6832 20.7713 73.8564 21.298 74.7199 22.4C75.876 23.8753 75.2594 27.169 73.6706 28.005C70.2028 29.8297 66.5876 25.9552 68.6263 22.5992C69.3268 21.446 70.4186 20.8454 71.5509 20.8083ZM197.168 34.4764C195.916 34.4575 194.654 34.7979 193.62 35.5194C189.405 38.4588 190.736 45.2569 195.759 46.4471C197.15 46.7769 197.474 46.7754 198.711 46.4305C200.086 46.0472 201.691 44.6541 202.428 43.2033C203.467 41.1588 203.017 37.9638 201.452 36.28C200.373 35.1183 198.778 34.5006 197.168 34.4764ZM196.889 36.243C197.704 36.2057 198.526 36.4135 199.242 36.8938C201.982 38.731 201.796 42.7033 198.901 44.185C197.147 45.0829 195.129 44.6731 193.711 43.1306C192.719 42.0515 192.553 39.6632 193.377 38.345C194.189 37.0482 195.53 36.3052 196.889 36.243ZM84.1479 37.9055L83.0088 38.2791C81.0466 38.923 74.4833 41.9871 71.8642 43.4818C57.4137 51.7286 46.2579 63.3295 39.1151 77.5352C34.6038 86.5081 32.2198 94.7441 30.9618 105.703C30.582 109.012 30.509 111.496 30.6282 117.088C30.8119 125.71 31.5879 131.146 33.7838 139.198C34.2764 141.004 34.7853 142.482 34.9146 142.482C35.5135 142.482 37.6637 140.496 37.6252 139.978C37.6023 139.669 37.1793 137.704 36.6854 135.611C35.4349 130.31 34.6577 125.535 34.4283 121.742L34.2328 118.513L34.9319 118.67C35.5264 118.803 44.7156 120.006 45.1412 120.006C45.2219 120.006 45.3626 121.878 45.4545 124.166C45.6217 128.331 46.1448 132.804 46.5121 133.213C46.6196 133.332 47.1434 133.065 47.676 132.619L48.6445 131.807L48.3178 128.445C47.9303 124.461 47.8898 120.298 48.2389 120.298C48.3754 120.298 50.8946 120.554 53.837 120.866C62.3829 121.774 73.3405 122.624 76.5293 122.63L78.167 122.633L78.3427 121.976C78.6451 120.844 78.5428 120.075 78.0657 119.891C77.8127 119.794 76.5369 119.713 75.2303 119.712C72.5948 119.71 64.5483 119.132 54.868 118.25C51.3727 117.931 48.3971 117.671 48.2555 117.671C47.65 117.671 48.9646 107.239 50.3523 101.033C51.5101 95.855 52.9446 91.0221 54.3586 87.5343L55.5041 84.7087L54.9208 83.1651C54.6 82.3163 54.2849 81.5685 54.2204 81.5033C53.9992 81.2786 51.8171 86.2947 50.6133 89.7953C48.2983 96.5277 46.641 104.469 45.806 112.833C45.5668 115.228 45.3385 117.21 45.2992 117.237C45.1535 117.338 34.2361 116.223 34.1081 116.095C33.8368 115.822 34.6332 105.936 35.1957 102.596C37.2498 90.3965 41.6009 79.6559 48.5089 69.7327C51.0415 66.0948 55.7343 60.56 57.1143 59.5841C57.4549 59.3433 58.5471 58.3328 59.5415 57.3385C64.1776 52.7033 75.0973 45.3841 80.998 42.9561C84.2218 41.6297 84.9241 41.0862 84.9241 39.9172C84.9241 39.397 84.7497 38.7321 84.5364 38.4393L84.1479 37.9055ZM34.0306 41.6424C31.8175 41.632 30.6593 42.0426 28.5993 43.568C26.4406 45.1664 25.2545 47.6386 25.2545 50.5404C25.2545 52.3451 25.392 52.9198 26.2102 54.5379C27.3268 56.746 29.0131 58.2692 31.215 59.0591C35.3515 60.543 40.1077 58.4623 41.9929 54.3437C42.876 52.4143 42.8398 48.8943 41.9152 46.8194C40.5528 43.7622 37.3482 41.6581 34.0306 41.6424ZM34.1796 43.6312C35.3081 43.6546 36.424 43.9583 37.3976 44.5612C39.0621 45.5918 40.556 47.8386 40.839 49.7377C41.2431 52.4491 39.3638 55.8206 36.7933 56.9956C35.2802 57.6874 32.7779 57.6856 31.2563 56.9918C29.7768 56.3172 27.8401 54.1329 27.3927 52.6341C26.6724 50.2209 27.297 47.6023 29.0309 45.7645C30.3825 44.332 32.2986 43.5923 34.1796 43.6312ZM175.334 44.0042C175.304 44.0057 175.283 44.0161 175.271 44.0355C175.201 44.1573 174.921 45.0338 174.649 45.9835L174.155 47.7104L175.121 48.4647C180.165 52.4036 187.117 59.2642 190.528 63.6678C200.806 76.9403 206.977 94.1876 207.838 112.049L208.025 115.917H207.034C206.489 115.917 204.016 116.181 201.536 116.502C196.775 117.119 188.808 117.96 187.727 117.96H187.085L186.902 114.239C186.694 109.997 186.051 104.801 185.234 100.745C184.926 99.2163 184.673 97.8672 184.672 97.7467C184.667 97.3072 184.075 97.5469 183.175 98.3535L182.255 99.1793L182.872 102.951C183.655 107.731 184.015 110.84 184.262 114.937L184.457 118.189L180.793 118.401C178.778 118.519 176.634 118.524 176.028 118.414L174.926 118.213L176.918 120.24L178.91 122.267L179.681 121.885C180.505 121.476 184.284 120.884 184.524 121.126C184.604 121.205 184.669 121.872 184.669 122.608V123.946L185.759 124.866L186.847 125.785L186.931 123.348L187.015 120.912L188.24 120.77C188.913 120.693 193.451 120.211 198.323 119.7C203.195 119.189 207.35 118.706 207.556 118.626C207.836 118.519 207.931 118.916 207.937 120.191L207.944 121.901L209.873 119.918L211.802 117.935L211.604 113.35C210.607 90.1496 203.612 72.1632 189.346 56.1148C185.966 52.313 176.264 43.9581 175.334 44.0042ZM221.893 54.9864C219.619 55.1441 217.963 55.9266 216.311 57.6248C213.956 60.0451 213.175 63.5263 214.28 66.6672C215.301 69.5672 217.174 71.4266 219.951 72.2984C223.313 73.3534 227.409 72.0022 229.459 69.1625C233.852 63.075 229.262 54.4747 221.893 54.9864ZM222.475 56.9688C228.718 56.9688 231.586 64.744 226.904 68.9772C226.25 69.5686 225.214 70.1922 224.603 70.3626C219.94 71.6623 215.786 68.5775 215.786 63.8155C215.786 61.8717 216.25 60.6536 217.564 59.1513C218.84 57.6921 220.468 56.9688 222.475 56.9688ZM24.0875 90.9616L22.2971 90.9749C20.1942 90.9893 18.9805 91.5438 17.8782 92.9944C15.8564 95.6551 16.9984 99.6066 20.2131 101.072C21.6493 101.727 22.675 101.751 24.0743 101.164C26.261 100.247 27.4107 98.5575 27.4445 96.2114C27.4699 94.4464 26.8127 93.1719 25.205 91.8678L24.0875 90.9616ZM22.1435 92.5385C24.3889 92.4664 26.3646 94.8776 25.3119 97.6569C25.1559 98.0687 24.5998 98.668 24.076 98.9885C20.3222 101.286 16.6842 96.5064 19.9105 93.5163C20.6165 92.8621 21.3951 92.5625 22.1435 92.5385ZM149.214 117.088L148.913 117.652C148.564 118.306 148.525 119.42 148.834 119.901C148.962 120.099 150.69 120.346 153.119 120.513C155.359 120.667 157.822 120.813 158.594 120.837L159.997 120.882L161.583 119.642L163.168 118.401L160.906 118.178C159.663 118.056 156.817 117.955 154.582 117.95C151.504 117.947 150.36 117.841 149.866 117.516L149.214 117.088ZM17.215 134.374C16.1096 134.423 15.005 134.649 14.2899 135.02C10.755 136.855 9.31942 141.211 11.1087 144.672C12.0137 146.422 12.5423 146.934 14.2573 147.715C15.8544 148.442 18.7502 148.515 20.2961 147.868C21.6737 147.291 23.149 145.873 23.9255 144.38C24.7827 142.732 24.7809 139.844 23.9223 138.208C23.0806 136.605 21.2236 135.049 19.6128 134.596C19.2256 134.487 18.7786 134.418 18.3063 134.386C17.9521 134.362 17.5834 134.358 17.215 134.374ZM17.4671 136.224C20.1123 136.122 22.6857 137.988 22.6857 141.166C22.6857 143.337 21.5917 145.071 19.5741 146.096C17.6765 147.061 14.9675 146.484 13.5717 144.819C12.0286 142.979 11.8721 140.588 13.1693 138.675C14.2676 137.055 15.88 136.285 17.4671 136.224ZM227.239 152.389C225.739 152.332 224.125 152.689 223.086 153.412C221.179 154.738 220.316 156.474 220.316 158.975C220.316 160.686 220.448 161.266 221.095 162.373C221.953 163.844 222.883 164.57 224.655 165.153C229.697 166.813 234.348 162.197 232.845 157.024C232.273 155.054 231.271 153.77 229.668 152.949C228.998 152.606 228.139 152.423 227.239 152.389ZM226.929 154.16C228.336 154.214 229.724 154.897 230.558 156.348C231.911 158.703 230.962 162.146 228.698 163.095C227.304 163.68 225.41 163.6 224.281 162.908C223.091 162.18 222.208 160.309 222.196 158.507C222.182 155.733 224.583 154.072 226.929 154.16ZM174.683 157.139C174.72 157.171 174.756 157.202 174.791 157.231C174.819 157.215 174.847 157.2 174.874 157.184C174.807 157.17 174.743 157.155 174.683 157.139ZM47.4517 160.738C47.2236 160.748 46.8489 161.005 46.1355 161.592C45.3968 162.2 44.7926 162.849 44.7926 163.036C44.7926 163.222 46.0668 165.078 47.6241 167.16C50.9069 171.549 58.1717 179.037 62.0857 182.064L64.6931 184.081L48.573 184.236V185.234C48.573 185.783 48.4411 186.581 48.2794 187.008L47.9853 187.784L46.9111 186.838C46.3204 186.317 45.1111 185.549 44.2242 185.132L42.6113 184.372L26.8473 184.192L26.6798 185.742C26.5877 186.594 26.1148 190.312 25.6292 194.004C25.1437 197.697 24.345 203.907 23.8541 207.805L22.9614 214.891L24.3355 216.489L25.7102 218.086L33.1433 218.08C40.8305 218.075 43.4465 217.778 45.0405 216.73L45.7269 216.278L47.583 218.084H58.1501L58.343 216.624C58.4491 215.822 58.6412 215.165 58.7696 215.165C58.898 215.165 59.6227 215.822 60.3799 216.624L61.7565 218.084H72.6317L73.1182 214.362C73.3859 212.315 73.6824 210.201 73.7772 209.663L73.9497 208.686L74.8029 210.471C75.835 212.629 78.9092 215.845 81.0294 216.985C81.8459 217.423 83.2196 217.978 84.0826 218.217V218.22C85.8658 218.714 87.2816 218.612 90.4505 217.762C92.7498 217.145 94.5989 216.211 95.4991 215.213L96.0397 214.614L97.534 215.746C102.137 219.233 108.581 219.461 113.341 216.306L114.567 215.493L115.705 216.79L116.842 218.087H138.143V216.628C138.143 215.825 138.262 215.168 138.409 215.168C138.555 215.168 139.077 215.825 139.569 216.628L140.464 218.087H227.12L227.256 217.43C227.33 217.069 228.005 210.25 228.757 202.275L230.124 187.777L228.846 186.006L227.567 184.235L221.343 184.304L215.118 184.372L214.117 186.78C213.567 188.104 213.013 189.188 212.886 189.188C212.76 189.188 212.573 188.564 212.471 187.802C212.368 187.039 212.211 185.923 212.121 185.321L211.958 184.226H194.389C184.726 184.226 176.82 184.126 176.82 184.004C176.82 183.882 177.049 183.638 177.329 183.462C180.699 181.338 188.679 174.186 193.322 169.13L196.01 166.203L194.921 165.476C194.323 165.077 192.851 163.854 191.652 162.761C190.878 162.055 190.446 161.685 190.391 161.677C190.391 161.677 190.39 161.677 190.389 161.677H190.387L190.386 161.677L190.385 161.679L190.385 161.68C190.385 161.707 190.527 161.87 190.82 162.174L192.17 163.577L191.402 164.468C184.837 172.081 178.771 177.604 172.208 181.946C170.552 183.042 168.905 184.013 168.549 184.102C168.03 184.233 167.738 184.781 167.072 186.873C166.615 188.307 166.14 189.481 166.016 189.481C165.735 189.481 165.278 187.773 165.019 185.759L164.822 184.226H141.699L141.5 185.828C141.391 186.708 141.183 187.501 141.04 187.59C140.896 187.679 140.381 186.959 139.893 185.989L139.007 184.226H118.144L117.938 186.435C117.805 187.864 117.593 188.697 117.339 188.795C117.115 188.881 116.224 188.209 115.258 187.222C114.267 186.211 112.847 185.145 111.823 184.643L110.079 183.789H107.171C103.414 183.789 101.014 184.625 97.4086 187.189C97.0428 187.449 96.5884 187.245 95.1195 186.16C91.6268 183.579 87.4838 183.004 83.2292 184.511L81.3897 185.163L80.7218 184.533L80.0539 183.902L76.0877 183.96L72.1216 184.018L69.6747 182.384C63.2391 178.085 55.3018 170.694 50.351 164.392C49.0332 162.715 47.8474 161.15 47.7162 160.915C47.6499 160.796 47.5712 160.733 47.4517 160.738ZM87.5419 186.323C89.698 186.313 91.9553 187.019 93.2705 188.16L94.3771 189.122L92.3459 192.099C90.2015 195.241 89.9165 195.556 89.6188 195.118C88.7213 193.797 86.1088 193.444 84.8109 194.469C83.3605 195.614 82.7881 197.209 82.6556 200.47C82.5159 203.91 82.834 205.189 84.0947 206.254C85.1854 207.175 86.9469 207.239 88.4791 206.415C89.0693 206.098 89.608 205.934 89.6768 206.05C89.7455 206.167 90.2262 207.292 90.7452 208.55C91.846 211.218 91.8362 211.241 89.142 212.242C86.8991 213.076 83.2595 213.287 81.4095 212.688C77.237 211.339 74.8261 206.041 75.5841 199.887C76.5428 192.103 80.7197 186.991 86.6275 186.372C86.9284 186.34 87.2339 186.325 87.5419 186.323ZM106.736 186.462C109.584 186.41 111.569 187.095 113.21 188.698C116.145 191.566 117.096 196.63 115.753 202.251C114.513 207.441 111.727 211.036 107.827 212.477C104.919 213.552 101.587 213.483 99.2764 212.3C97.815 211.551 96.0939 209.655 95.2874 207.904L94.6659 206.555L94.6709 202.323C94.6733 198.773 94.7782 197.759 95.3184 196.038C97.2144 189.996 101.309 186.562 106.736 186.462ZM76.5302 186.927L76.3781 187.984C76.2944 188.565 76.078 189.993 75.8967 191.157L75.5669 193.274H73.1212C71.6883 193.274 70.6755 193.394 70.6755 193.565C70.6755 193.725 70.0871 198.027 69.3677 203.124C68.6485 208.22 68.0592 212.423 68.0586 212.466C68.0545 212.506 66.5997 212.539 64.8221 212.539H61.5863L61.7843 211.298C61.8932 210.616 62.4348 206.642 62.9883 202.468C63.5419 198.294 64.0688 194.517 64.1593 194.076L64.3242 193.274H59.0318L59.1763 192.617C59.2557 192.255 59.4566 190.918 59.6226 189.645C59.7886 188.371 59.9624 187.291 60.0085 187.245C60.0546 187.199 63.7908 187.108 68.3114 187.043L76.5302 186.927ZM178.327 186.994L178.148 188.892C178.049 189.935 177.781 192.759 177.552 195.167C177.324 197.576 176.997 201.516 176.827 203.924C176.656 206.333 176.439 209.255 176.345 210.419L176.172 212.535H169.588L169.725 211.587C170.092 209.043 171.226 199.537 171.17 199.475C171.135 199.436 169.939 202.354 168.511 205.961L165.916 212.519L160.354 212.539L159.69 206.594C159.324 203.325 158.931 200.204 158.817 199.661L158.61 198.674L158.402 200.425C158.287 201.388 157.783 204.508 157.282 207.357L156.37 212.535H149.918L152.3 200.52C153.61 193.911 154.758 188.197 154.852 187.822L155.022 187.14H162.235L162.394 187.943C162.52 188.576 163.437 196.188 164.108 202.174L164.207 203.049L164.441 202.465C164.57 202.144 165.917 198.664 167.435 194.73C168.952 190.797 170.309 187.456 170.45 187.306C170.59 187.156 172.42 187.027 174.516 187.014L178.327 186.994ZM29.5339 186.998H35.3473C40.2591 186.998 41.3717 187.08 42.5231 187.526C44.1995 188.175 45.8569 189.951 46.1251 191.386C46.6653 194.276 45.4186 197.382 43.1917 198.692L41.8934 199.455L43.1114 200.101C47.4438 202.401 45.9939 209.633 40.7848 211.707L39.1248 212.368L25.8695 212.587L26.021 211.906C26.1044 211.532 26.831 206.365 27.6351 200.425C28.4392 194.485 29.1954 189.034 29.3154 188.311L29.5339 186.998ZM131.218 187.125L134.424 187.208L137.629 187.29L139.883 193.539L142.136 199.788L142.319 198.793C142.554 197.512 143.963 187.758 143.963 187.409C143.963 187.263 145.47 187.144 147.313 187.144H150.663L150.514 187.8C150.433 188.161 149.839 192.135 149.195 196.631C147.492 208.517 147.151 210.841 146.979 211.736L146.825 212.539H140.554L139.908 210.86C139.552 209.937 138.545 207.146 137.67 204.658C136.795 202.169 136.003 199.936 135.909 199.695C135.814 199.454 135.339 202.245 134.852 205.898L133.965 212.539H127.376L127.518 211.882C127.677 211.142 129.034 201.909 130.146 194.003C130.552 191.114 130.959 188.384 131.051 187.937L131.218 187.125ZM225.177 187.128L225.001 188.237C224.702 190.109 223.709 201.286 223.328 207.066L222.967 212.539H216.376V211.985C216.376 211.68 216.703 208.889 217.102 205.782C217.502 202.675 217.827 200.002 217.822 199.842C217.818 199.681 216.578 202.44 215.067 205.972L212.318 212.394L209.609 212.476L206.899 212.559L206.549 209.411C206.357 207.68 205.979 204.622 205.709 202.615L205.22 198.966L204.429 203.636C203.994 206.205 203.483 209.259 203.292 210.423L202.946 212.539H196.087L196.765 209.693C197.137 208.128 198.458 202.414 199.7 196.995L201.96 187.144H209.059L209.248 188.969C210.225 198.432 210.795 202.981 210.957 202.614C211.062 202.374 212.441 198.827 214.02 194.733L216.891 187.29L221.034 187.209L225.177 187.128ZM50.9645 187.144H57.4694L55.6573 199.768C54.6604 206.712 53.8372 212.424 53.8287 212.465C53.82 212.505 52.3618 212.538 50.5884 212.538H47.364L47.5397 211.444C47.6361 210.842 48.3056 205.949 49.0278 200.571C49.7499 195.193 50.4811 189.971 50.6527 188.968L50.9645 187.144ZM127.399 187.144L127.248 187.8C127.107 188.413 125.131 201.382 124.002 209.109L123.5 212.538H117.032L117.514 209.109C117.779 207.222 118.572 201.509 119.275 196.412L120.554 187.144H123.977L127.399 187.144ZM190.819 187.211L197.918 187.289L197.507 190.136L197.096 192.982H189.04V193.525C189.04 193.823 188.957 194.677 188.855 195.422L188.67 196.776H192.054C193.915 196.776 195.438 196.875 195.438 196.995C195.437 197.116 195.241 198.33 195.002 199.695C194.763 201.06 194.566 202.209 194.566 202.249C194.566 202.289 193.01 202.322 191.109 202.322H187.653L187.447 203.973C187.334 204.881 187.174 205.801 187.092 206.016C186.971 206.332 187.683 206.409 190.754 206.409H194.565V206.9C194.565 207.17 194.418 208.549 194.237 209.965L193.908 212.539H186.967C181.587 212.539 180.025 212.456 180.025 212.171C180.025 211.439 183.47 187.383 183.593 187.259C183.662 187.189 186.914 187.168 190.819 187.211ZM35.2855 192.398L35.1041 193.945C35.0044 194.797 34.839 195.913 34.7367 196.427L34.5507 197.359L35.5326 197.358C37.0691 197.356 38.6357 196.814 39.1224 196.116C39.3671 195.766 39.5675 194.99 39.5675 194.392C39.5675 192.967 38.7719 192.398 36.7799 192.398L35.2855 192.398ZM106.141 193.194C103.727 193.194 101.928 196.282 101.604 200.977C101.409 203.822 101.814 205.563 102.865 206.393C105.699 208.631 109.078 204.198 109.07 198.247C109.066 194.6 108.251 193.194 106.141 193.194ZM33.9179 202.176L33.5619 204.219C33.3659 205.343 33.1974 206.492 33.1875 206.773C33.1729 207.191 33.4217 207.283 34.5508 207.282C36.4601 207.28 38.0132 206.797 38.5412 206.04C39.1441 205.176 39.1017 203.698 38.4508 202.891C37.9927 202.323 37.627 202.224 35.9166 202.202L33.9179 202.176Z" fill="url(#paint0_linear_1_600)" stroke="#0C3618" stroke-width="12" mask="url(#path-1-inside-1_1_600)"/>
<path d="M10.8499 185.467C7.22688 181.096 0 171.87 0 171.616C0 171.431 7.33974 165.461 27.7971 149.01C31.1946 146.278 34.6502 143.516 35.4762 142.873C36.3022 142.231 39.5716 139.577 42.7415 136.977C45.9114 134.377 51.1859 130.075 54.4625 127.417L60.42 122.584L61.4543 123.364C62.0231 123.792 64.2421 125.662 66.3854 127.518C68.5287 129.374 71.473 131.922 72.9282 133.181L75.5741 135.469L75.784 134.934C75.8995 134.64 76.0032 133.917 76.0145 133.327C76.0257 132.737 76.3625 130.315 76.7628 127.945C77.1631 125.574 77.4305 123.575 77.3571 123.501C77.2836 123.427 77.3969 123.022 77.6087 122.6C78.2863 121.252 80.4509 113.434 80.2049 113.223C80.0745 113.112 78.9191 112.322 77.6372 111.467C64.8008 102.912 54.0626 87.8959 52.1368 75.8099C51.9703 74.7652 51.4613 72.99 51.0056 71.8649C49.8333 68.9709 49.6501 66.7627 50.3859 64.3972C51.3129 61.4174 51.8477 60.7351 53.4269 60.5181C54.165 60.4166 55.7848 59.9371 57.0266 59.4527C59.2332 58.5917 61.0234 58.3786 62.195 58.8374C62.5376 58.9716 63.1603 58.9033 63.7151 58.6708C65.7619 57.8129 67.4099 58.1893 70.1914 60.1499C70.9812 60.7066 71.4965 60.901 71.6839 60.713C71.8413 60.5551 72.157 59.1863 72.3854 57.6712C72.6139 56.1561 73.1358 53.8916 73.5453 52.639C74.5015 49.7141 77.2943 44.1773 78.6358 42.5472C79.9557 40.9433 84.1204 37.4017 85.4149 36.7825L86.4002 36.3112L86.8841 33.4869C87.4169 30.3772 88.8024 25.6635 90.3782 21.5999C94.0229 12.2014 100.145 4.18703 106.136 0.9724C108.317 -0.197943 110.219 -0.30999 112.016 0.626183C115.317 2.34597 120.134 9.67412 123.259 17.7313L124.25 20.2872L125.96 20.2883C130.562 20.2911 137.505 21.9591 142.331 24.2211L145.059 25.5L146.307 24.5525C150.597 21.2953 155.177 18.7498 159.79 17.058L162.412 16.0966L168.913 16.0521L170.178 16.9393C176.207 21.167 176.237 42.8788 170.231 54.9006C169.674 56.0167 168.828 57.4229 168.353 58.0255L167.488 59.1211L168.849 60.9639C170.368 63.0207 172.361 66.9295 172.633 68.3879C172.894 69.7836 173.518 69.8469 175.247 68.6529C177.036 67.4169 178.297 67.0047 179.555 67.2449C180.622 67.4485 182.537 68.3613 182.802 68.793C182.903 68.956 183.6 69.0922 184.352 69.0958C186.74 69.107 189.343 70.8233 189.811 72.6966C189.906 73.0746 190.53 73.6339 191.335 74.0621C193.579 75.2566 194.694 77.5143 194.724 80.924C194.744 83.2245 193.877 85.0172 191.546 87.4989C189.883 89.2689 185.056 95.2125 183.121 97.8735C181.738 99.7747 175.146 106.368 172.317 108.679C165.934 113.895 159.628 117.365 153.97 118.774C152.05 119.252 150.207 119.643 149.874 119.643C149.541 119.643 149.023 119.823 148.722 120.043L148.176 120.444L148.956 123.623C149.385 125.371 149.818 127.411 149.919 128.157C150.019 128.902 150.204 129.678 150.33 129.883C150.492 130.145 151.71 129.192 154.447 126.665C156.585 124.691 158.924 122.608 159.645 122.036C160.366 121.464 161.742 120.199 162.704 119.223C165.275 116.614 170.367 112.045 170.703 112.045C170.94 112.045 176.318 117.33 195.042 135.96C195.096 136.014 195.643 135.491 196.256 134.796C199.203 131.457 205.526 124.799 212.594 117.588C216.879 113.217 220.42 109.552 220.462 109.444C220.504 109.335 218.235 107.089 215.42 104.452L210.301 99.6576L211.41 99.317C212.02 99.1296 216.911 97.6324 222.279 95.9898C227.647 94.3472 237.789 91.2328 244.819 89.069C251.848 86.9051 257.669 85.204 257.752 85.2885C257.869 85.4051 249.596 127.45 247.871 135.507L247.572 136.905L245.198 134.63C243.892 133.378 241.367 130.935 239.587 129.2L236.349 126.045L218.025 144.57C207.947 154.759 198.636 164.1 197.334 165.327L194.967 167.559L191.431 164.154C189.486 162.281 183.617 156.304 178.388 150.87L168.88 140.992L166.228 143.383C164.77 144.699 159.206 150.155 153.864 155.508L144.15 165.241L141.298 162.971C139.729 161.721 134.355 157.373 129.355 153.307L120.265 145.914L119.781 146.294C119.248 146.711 110.101 154.897 98.3364 165.484C94.1624 169.24 90.1962 172.768 89.5229 173.324L88.2985 174.336L82.2398 168.981C78.9075 166.035 72.619 160.446 68.2649 156.56L60.3492 149.494L52.5335 156.092C48.2348 159.721 41.4404 165.393 37.4349 168.698C33.4292 172.003 27.0055 177.33 23.1605 180.537C19.315 183.743 15.5586 186.872 14.8127 187.49L13.4568 188.614L10.8499 185.467ZM18.9359 180.543C29.8123 171.616 39.079 163.935 47.6313 156.759C60.6045 145.874 60.3223 146.096 60.7449 146.405C60.9454 146.551 63.3916 148.709 66.181 151.201C77.8782 161.647 88.0626 170.639 88.2967 170.728C88.4348 170.78 90.4191 169.139 92.7063 167.081C94.9935 165.023 101.322 159.326 106.77 154.421C112.218 149.515 117.441 144.824 118.378 143.995L120.082 142.487L124.642 146.168C127.15 148.193 132.348 152.412 136.194 155.545C140.039 158.677 143.339 161.355 143.527 161.497C143.76 161.673 146.269 159.346 151.393 154.204C155.531 150.051 161.162 144.521 163.907 141.914L168.897 137.173L181.779 150.469C188.864 157.782 194.801 163.765 194.974 163.765C195.146 163.765 204.524 154.435 215.813 143.03L236.338 122.295L246.022 131.629L246.374 129.945C246.567 129.019 247.181 125.829 247.738 122.856C248.866 116.837 254.242 90.2717 254.494 89.4696C254.583 89.1883 254.592 88.9582 254.515 88.9582C254.343 88.9582 249.938 90.2935 236.7 94.3582C231.092 96.0801 224.145 98.2088 221.263 99.0887C218.381 99.9686 215.985 100.727 215.938 100.774C215.892 100.82 217.761 102.743 220.092 105.047C222.422 107.351 224.294 109.332 224.251 109.449C224.208 109.567 219.519 114.376 213.831 120.135C208.143 125.895 201.599 132.666 199.288 135.184L195.087 139.76L192.978 137.81C191.818 136.737 186.388 131.29 180.911 125.705C175.434 120.12 170.822 115.55 170.662 115.55C170.243 115.55 156.835 127.855 147.309 136.981L142.478 141.61L140.793 140.143C139.866 139.337 134.681 134.987 129.272 130.477L119.436 122.278L112.52 128.297C108.717 131.607 101.75 137.688 97.0386 141.808C92.3266 145.929 88.2868 149.411 88.0611 149.545C87.6095 149.814 87.6859 149.878 76.619 139.943C72.8537 136.563 67.704 131.982 65.1753 129.764L60.5775 125.731L57.6008 128.158C55.9637 129.493 50.6258 133.816 45.7387 137.765C40.8518 141.714 34.2315 147.083 31.027 149.697C27.8224 152.311 20.3827 158.348 14.4941 163.112C8.60543 167.876 3.78801 171.872 3.78801 171.991C3.78801 172.221 9.46005 179.504 12.2034 182.797C13.5928 184.465 13.9044 184.704 14.2756 184.384C14.516 184.178 16.6135 182.449 18.9368 180.542L18.9359 180.543ZM92.5835 142.215C95.106 140.005 99.9198 135.812 103.281 132.896C106.642 129.981 111.605 125.674 114.31 123.326C117.015 120.978 119.346 119.057 119.49 119.057C119.634 119.057 121.419 120.475 123.457 122.209C125.495 123.943 130.374 128.04 134.3 131.314C138.225 134.587 141.634 137.431 141.874 137.634C142.243 137.944 142.751 137.578 145.125 135.292L147.94 132.582L147.53 130.423C146.846 126.825 145.96 123.513 144.447 118.91C143.075 114.735 142.07 110.873 142.296 110.646C142.353 110.588 143.138 111.858 144.039 113.469C145.908 116.81 146.717 117.595 148.29 117.595C151.324 117.595 158.989 114.374 164.306 110.864C171.252 106.279 178.037 99.8455 184.48 91.7344C186.651 89.0021 189.044 86.2546 189.8 85.6286C192.006 83.8011 192.768 81.2598 191.972 78.3842C191.612 77.0848 190.192 75.8086 189.107 75.8086H188.315L187.978 74.544C187.418 72.4436 186.759 71.8628 184.943 71.8691C184.088 71.8715 183.191 71.9709 182.951 72.0887C182.645 72.2383 182.365 72.0392 182.019 71.4281C181.35 70.2458 179.818 69.5385 178.475 69.7914C177.9 69.8995 176.869 70.4415 176.184 70.9957C175.5 71.55 174.513 72.2264 173.992 72.499L173.046 72.9946V74.2227C173.046 75.8076 171.831 79.9994 170.605 82.6465C168.568 87.0455 165.117 91.8949 161.539 95.3876C160.469 96.4323 159.089 98.0231 158.473 98.9229C155.368 103.457 149.297 106.601 141.292 107.82C136.034 108.621 128.921 108.215 120.025 106.605C100.253 103.027 87.5088 96.8711 83.7939 89.1053C83.0421 87.5336 82.1486 86.241 81.0673 85.1604C76.588 80.6844 73.1928 73.4696 72.3868 66.7143C72.1742 64.9326 71.765 64.367 69.3355 62.4973C67.2907 60.9236 66.2858 60.5439 65.0628 60.8827C64.4908 61.0411 63.7825 61.3889 63.4888 61.6555L62.9549 62.1402L62.1731 61.5234C60.7738 60.4194 58.3283 60.8973 57.2969 62.4764L56.8245 63.1995L55.9315 62.8614C54.786 62.4276 53.7528 62.9671 52.9598 64.4131C52.2061 65.7874 52.3637 68.9899 53.2727 70.7688C53.6217 71.4518 54.0167 72.0106 54.1505 72.0106C54.2842 72.0106 54.47 72.925 54.5634 74.0425C54.8924 77.9784 57.9031 85.5798 61.1043 90.5569C65.4535 97.3186 71.8275 103.954 78.7608 108.939C80.0195 109.843 81.1487 110.584 81.2703 110.584C81.392 110.584 81.7043 110.025 81.9644 109.342C82.7703 107.225 84.9179 103.819 86.9412 101.448C88.7393 99.3416 91.0074 97.4515 91.3388 97.7838C91.4172 97.8625 91.046 98.5063 90.5138 99.2146C84.8373 106.769 80.4801 119.3 78.8024 132.892C78.1348 138.301 77.7423 137.431 82.9545 142.1C85.4781 144.361 87.6452 146.216 87.7702 146.222C87.8953 146.229 90.0615 144.426 92.5841 142.216L92.5835 142.215ZM111.14 121.702C109.924 121.203 109.392 120.247 109.392 118.563V116.963L110.343 116.11C112.902 113.817 116.614 116.203 115.769 119.598C115.32 121.405 112.992 122.463 111.14 121.702ZM111.73 111.963C110.892 111.123 110.703 110.714 110.703 109.748C110.703 107.464 111.928 106.199 114.14 106.199C115.107 106.199 115.456 106.373 116.208 107.232C118.136 109.435 116.992 112.515 114.124 112.839L112.758 112.994L111.73 111.963ZM177.189 86.3106C175.766 85.5852 174.502 83.7114 174.502 82.3282C174.502 79.5759 178.122 77.6283 180.998 78.8336C182.269 79.3662 183.753 81.1204 183.986 82.3648C184.217 83.6025 183.467 85.2883 182.307 86.1386C181.107 87.018 178.733 87.0977 177.189 86.3106ZM61.7605 76.6494C59.9925 75.9422 58.6903 73.9631 58.9786 72.4214C59.5241 69.5049 63.0502 67.9529 65.862 69.3918C67.3219 70.1389 68.1671 71.4914 68.1684 73.0834C68.1709 75.8506 64.6551 77.807 61.7605 76.6494ZM144.296 100.959C154.792 98.5966 162.545 92.4417 167.509 82.5299C170.202 77.1524 170.812 73.1099 169.55 69.0101C168.382 65.2171 164.668 60.6195 162.432 60.1988L161.327 59.9908L163.07 59.164C165.038 58.2306 165.792 57.3608 167.356 54.2208C170.332 48.2454 171.956 40.6653 171.965 32.7072C171.977 23.4452 170.099 18.5312 166.554 18.5373C162.033 18.5449 153.933 22.0377 147.663 26.684L144.98 28.6716L142.189 27.291C136.563 24.5079 132.106 23.3249 126.093 23.0185L122.4 22.8304L121.619 20.6098C121.189 19.3885 119.982 16.6979 118.937 14.6307C114.638 6.13004 111.1 2.52448 107.688 3.16667C104.286 3.80674 98.3053 11.0134 94.3965 19.1817C91.7765 24.6569 89.4369 32.1873 89.4369 35.1437V35.9831L91.3432 36.1617C94.633 36.4699 96.1131 37.6425 93.6057 37.954C87.8799 38.6656 84.3694 40.6566 80.821 45.2051C73.4508 54.6533 72.9529 68.1487 79.5733 79.026C81.5318 82.2436 85.7654 86.5007 89.4365 88.9433C92.5456 91.0121 98.3878 93.9514 102.546 95.5388C108.859 97.9485 119.049 100.455 126.29 101.38C131.208 102.008 140.613 101.788 144.296 100.959ZM115.901 93.2446C110.452 91.2013 108.376 86.7107 109.665 79.7533C110.199 76.8726 111.512 72.079 112.432 69.6486C112.755 68.7966 112.99 68.089 112.953 68.0763C110.437 67.1889 108.376 65.4859 107.372 63.4649C106.485 61.6807 106.442 60.6056 107.189 58.9557C107.86 57.4712 108.835 56.789 110.561 56.5938C112.157 56.4134 112.259 56.8161 110.841 57.6953C109.579 58.4775 108.954 59.6293 108.954 61.1728C108.954 62.587 110.072 64.0155 112.126 65.2267L113.47 66.0191H116.529C118.211 66.0191 120.262 65.8448 121.087 65.6319L122.587 65.2446L122.893 64.0341C123.062 63.3683 123.173 62.8099 123.141 62.7931C121.458 61.9076 120.184 60.9832 119.626 60.2413C118.402 58.6146 118.091 56.4292 118.938 55.4029C120.266 53.793 125.104 53.3449 127.761 54.5858C130.517 55.8731 132.518 59.2643 131.613 61.1143C130.926 62.5189 129.809 63.0769 127.444 63.1968L125.278 63.3065L124.984 64.3706C124.545 65.9537 124.561 65.9922 126.235 67.524C130.826 71.723 134.363 72.5548 136.98 70.0506C138.161 68.9204 138.261 67.9137 137.381 65.9865C136.968 65.0816 136.63 64.3038 136.63 64.2579C136.63 63.9314 137.978 64.6403 138.662 65.3265C140.374 67.0435 140.417 69.4622 138.771 71.4247C137.536 72.897 136.087 73.4706 133.604 73.4706H131.428L131.094 75.1509C130.267 79.3199 128.672 84.9028 127.754 86.8441C126.568 89.3526 124.392 91.7786 122.46 92.7462C120.767 93.5943 117.497 93.843 115.901 93.2446ZM120.136 91.2703C122.584 90.5887 125.622 86.4785 126.863 82.1706C127.798 78.927 127.006 77.5843 124.012 77.3353C122.064 77.1733 121.391 77.5158 120.315 79.2186L119.478 80.5414L119.646 78.9152C119.922 76.2303 118.525 74.9321 115.358 74.9321H113.877L113.451 75.9553C112.118 79.1547 111.715 85.7569 112.717 87.9697C113.385 89.4454 114.957 90.6917 116.768 91.1808C118.494 91.6471 118.758 91.6542 120.136 91.2703ZM147.617 61.3091C147.502 61.1946 147.409 60.6883 147.409 60.184C147.409 58.8521 145.918 56.6662 144.522 55.952C142.19 54.7582 139.868 55.356 138.802 57.4252C138.11 58.7666 136.63 58.4005 136.63 56.8881C136.63 54.6273 139.745 52.1361 142.566 52.1412C145.457 52.1464 148.371 54.459 149.33 57.5103C150.004 59.6545 149.682 61.3 148.563 61.4309C148.157 61.4784 147.731 61.4236 147.617 61.3091ZM114.032 50.4593C113.598 48.4912 113.224 47.7283 112.292 46.9074C110.217 45.0801 107.689 45.0811 105.172 46.9101L104.038 47.7335L102.691 46.6155L103.311 45.5057C103.759 44.7027 104.444 44.1259 105.787 43.4194L107.643 42.4431L109.737 42.5475C111.499 42.6354 112.029 42.7914 113.081 43.5329C115.312 45.106 116.686 48.2607 116.122 50.5149C115.974 51.1067 115.755 51.2628 115.072 51.2628C114.368 51.2628 114.177 51.1151 114.032 50.4593ZM163.259 47.2405C163.083 47.1224 162.254 45.6455 161.415 43.9586C159.295 39.6928 157.127 36.7999 153.308 33.1399C151.506 31.4122 150.031 29.9238 150.031 29.8325C150.031 29.4423 156.82 25.1767 159.367 23.9661C166.498 20.578 168.967 22.5636 168.967 31.6861C168.967 39.9458 165.689 48.8781 163.259 47.2405ZM165.425 42.0392C166.521 38.7622 167.006 35.7317 167.036 31.9767C167.068 27.9971 166.639 25.6131 165.744 24.8011C164.965 24.0939 163.101 24.4018 160.299 25.7006L158.06 26.7383L158.825 27.385C160.54 28.8354 160.651 30.4233 159.22 33.0347L158.214 34.8717L160.313 38.0368C161.468 39.7776 162.795 42.016 163.263 43.011L164.115 44.8203L164.48 44.2969C164.681 44.0091 165.107 42.9932 165.425 42.0392ZM158.03 32.4625C158.872 31.0215 158.997 29.3238 158.313 28.6372C157.54 27.8622 155.835 28.0643 154.435 29.0967L153.19 30.0155L155.025 31.8728C156.034 32.8943 156.957 33.7302 157.075 33.7302C157.193 33.7302 157.623 33.1596 158.03 32.4625ZM144.321 45.7387C141.076 44.2607 140.829 40.1381 143.913 38.9366C146.089 38.0887 149.218 39.1978 150.138 41.143C151.818 44.6938 148.237 47.5227 144.321 45.7387ZM111.291 36.1406C108.789 34.8796 108.28 32.1016 110.224 30.3144C111.357 29.2727 113.258 28.6373 114.453 28.9005C116.511 29.354 118.274 31.2673 118.276 33.0503C118.277 34.1087 117.2 35.5638 115.926 36.2245C114.808 36.8045 112.527 36.7632 111.291 36.1406ZM95.3915 30.9769C92.9475 29.1808 99.2286 14.3043 104.453 9.51511C108.228 6.05416 110.732 7.01472 113.963 13.1631C115.019 15.1729 117.404 20.8096 117.404 21.2962C117.404 21.3406 116.715 21.4581 115.873 21.5573C111.211 22.107 103.266 25.9298 97.8337 30.2372C96.1889 31.5414 96.1677 31.5473 95.3915 30.9769ZM100.507 25.885C102.029 24.8649 104.417 23.4841 105.814 22.8167L108.353 21.6032L108.363 19.9136C108.38 16.949 109.723 15.0283 111.779 15.0283H112.777L111.842 13.2696C110.797 11.3028 108.976 9.47622 108.059 9.47622C107.188 9.47622 104.27 12.3913 102.54 14.9893C100.127 18.6119 97.8979 23.6928 97.1555 27.2598C96.9921 28.0448 97.0301 28.1908 97.3455 27.9903C97.5623 27.8525 98.9848 26.9051 100.507 25.885Z" fill="#0C3618"/>
<path d="M114.255 74.1231L116.493 67.0045C116.493 67.0045 122.607 67.8532 122.88 67.114L123.153 66.3747C123.153 66.3747 124.027 68.3735 126.62 70.1258C129.213 71.878 129.486 72.3435 129.486 72.3435L127.657 78.3396C127.657 78.3396 125.555 74.8077 123.017 75.7386C120.478 76.6695 120.588 76.7516 120.588 76.7516C120.588 76.7516 120.369 74.4244 118.267 74.1506C116.166 73.8769 114.255 74.1231 114.255 74.1231Z" fill="#444653"/>
<defs>
<linearGradient id="paint0_linear_1_600" x1="121.735" y1="18.9252" x2="121.735" y2="218.525" gradientUnits="userSpaceOnUse">
<stop stop-color="#1F5D53"/>
<stop offset="0.0001" stop-color="#3CE0C5"/>
</linearGradient>
</defs>
</svg>
