<svg width="30" height="30" viewBox="0 0 30 30" fill="none" xmlns="http://www.w3.org/2000/svg">
<g filter="url(#filter0_d_37_862)">
<rect width="30" height="30" rx="8" fill="url(#paint0_radial_37_862)"/>
</g>
<path d="M9 24C10.5 22.4 12 20.9673 12 19.2C12 17.4327 10.6568 16 9 16C7.34315 16 6 17.4327 6 19.2C6 20.9673 7.5 22.4 9 24ZM9 24H20.5C21.8807 24 23 22.8807 23 21.5C23 20.1193 21.8807 19 20.5 19H18M21 14C22.5 12.4 24 10.9673 24 9.2C24 7.43269 22.6569 6 21 6C19.3431 6 18 7.43269 18 9.2C18 10.9673 19.5 12.4 21 14ZM21 14H17.5C16.1193 14 15 15.1193 15 16.5C15 17.8807 16.1193 19 17.5 19H18.6" fill="url(#paint1_radial_37_862)"/>
<path d="M9 24C10.5 22.4 12 20.9673 12 19.2C12 17.4327 10.6568 16 9 16C7.34315 16 6 17.4327 6 19.2C6 20.9673 7.5 22.4 9 24ZM9 24H20.5C21.8807 24 23 22.8807 23 21.5C23 20.1193 21.8807 19 20.5 19H18M21 14C22.5 12.4 24 10.9673 24 9.2C24 7.43269 22.6569 6 21 6C19.3431 6 18 7.43269 18 9.2C18 10.9673 19.5 12.4 21 14ZM21 14H17.5C16.1193 14 15 15.1193 15 16.5C15 17.8807 16.1193 19 17.5 19H18.6" stroke="#EBFFC8" stroke-width="1.5" stroke-linecap="round" stroke-linejoin="round"/>
<defs>
<filter id="filter0_d_37_862" x="-7.8" y="-7.8" width="45.6" height="45.6" filterUnits="userSpaceOnUse" color-interpolation-filters="sRGB">
<feFlood flood-opacity="0" result="BackgroundImageFix"/>
<feColorMatrix in="SourceAlpha" type="matrix" values="0 0 0 0 0 0 0 0 0 0 0 0 0 0 0 0 0 0 127 0" result="hardAlpha"/>
<feOffset/>
<feGaussianBlur stdDeviation="3.9"/>
<feComposite in2="hardAlpha" operator="out"/>
<feColorMatrix type="matrix" values="0 0 0 0 0.921569 0 0 0 0 1 0 0 0 0 0.784314 0 0 0 0.27 0"/>
<feBlend mode="normal" in2="BackgroundImageFix" result="effect1_dropShadow_37_862"/>
<feBlend mode="normal" in="SourceGraphic" in2="effect1_dropShadow_37_862" result="shape"/>
</filter>
<radialGradient id="paint0_radial_37_862" cx="0" cy="0" r="1" gradientUnits="userSpaceOnUse" gradientTransform="translate(15 15) rotate(90) scale(15)">
<stop stop-color="#2C7A33"/>
<stop offset="1" stop-color="#131315"/>
</radialGradient>
<radialGradient id="paint1_radial_37_862" cx="0" cy="0" r="1" gradientUnits="userSpaceOnUse" gradientTransform="translate(15 15) rotate(90) scale(9)">
<stop stop-color="#2C7A33"/>
<stop offset="1" stop-color="#131315"/>
</radialGradient>
</defs>
</svg>
