<svg width="256" height="215" viewBox="0 0 256 215" fill="none" xmlns="http://www.w3.org/2000/svg">
<path d="M35.5914 141.577L59.5245 122.681C59.5245 122.681 84.9251 145.139 85.3884 145.681C85.8516 146.223 87.7044 145.526 87.7044 145.526L118.2 119.041L141.129 138.556L169.232 111.917L193.165 136.234L211.23 118.113L207.216 112.537L206.598 96.1194L196.716 68.8599L176.952 47.1769L170.622 43.6146L84.771 38.3486L75.0434 42.3755L48.7938 61.5805L42.4631 72.4222L31.6545 101.85L32.1177 120.281L35.5914 141.577Z" fill="url(#paint0_linear_1_538)"/>
<path d="M75.3514 136.547L77.513 123.537L81.2188 110.526L71.0279 105.26L60.6578 93.0901L55.6354 85.9714L52.1415 76.0053L50.1762 67.463L51.0497 61.4395L53.9976 59.9062C53.9976 59.9062 54.8711 60.2348 55.417 59.7967C55.963 59.3586 57.9283 58.4825 58.4741 58.4825C59.02 58.4825 63.2781 58.373 63.2781 58.373C63.2781 58.373 66.0077 58.154 66.6628 58.373C67.3179 58.592 70.4842 60.5633 70.4842 60.5633L71.4668 61.768L75.9433 45.9976L82.931 37.8933L85.9881 35.4839L87.1891 33.9506L86.6432 30.008L95.9237 9.63759L103.785 1.86179L109.462 0L119.616 13.0328L122.128 19.9324L134.028 21.7942C134.028 21.7942 141.453 24.5322 142.217 24.9703C142.981 25.4084 143.527 25.6274 143.527 25.6274L145.711 23.9846L159.359 16.3184L164.709 16.0994L168.421 16.5375L171.478 23.3276L172.461 32.9652L170.823 44.136L166.347 54.7592L164.054 58.5923L167.985 65.0538L170.496 69.9822L174.754 68.4489L178.575 67.0251L181.851 68.9964L185.126 69.2154C185.126 69.2154 186.218 71.0772 186.764 71.6249C187.31 72.1725 189.712 73.5962 189.712 73.5962C189.712 73.5962 191.787 74.8008 191.787 75.458C191.787 76.1151 192.332 77.8674 192.223 78.5244C192.114 79.1815 191.459 81.7005 191.131 82.1385C190.804 82.5766 189.494 85.0954 189.494 85.0954L172.898 103.495L164.928 109.409L153.791 115.432L145.384 117.732L146.585 125.289L148.441 131.422L141.344 138.212L94.5043 150.697L75.3514 136.547Z" fill="#EEBD31"/>
<path d="M75.3514 136.547L77.513 123.537L81.2188 110.526L71.0279 105.26L60.6578 93.0901L55.6354 85.9714L52.1415 76.0053L50.1762 67.463L51.0497 61.4395L53.9976 59.9062C53.9976 59.9062 54.8711 60.2348 55.417 59.7967C55.963 59.3586 57.9283 58.4825 58.4741 58.4825C59.02 58.4825 63.2781 58.373 63.2781 58.373C63.2781 58.373 66.0077 58.154 66.6628 58.373C67.3179 58.592 70.4842 60.5633 70.4842 60.5633L71.4668 61.768L75.9433 45.9976L82.931 37.8933L85.9881 35.4839L87.1891 33.9506L86.6432 30.008L95.9237 9.63759L103.785 1.86179L109.462 0L119.616 13.0328L122.128 19.9324L134.028 21.7942C134.028 21.7942 141.453 24.5322 142.217 24.9703C142.981 25.4084 143.527 25.6274 143.527 25.6274L145.711 23.9846L159.359 16.3184L164.709 16.0994L168.421 16.5375L171.478 23.3276L172.461 32.9652L170.823 44.136L166.347 54.7592L164.054 58.5923L167.985 65.0538L170.496 69.9822L174.754 68.4489L178.575 67.0251L181.851 68.9964L185.126 69.2154C185.126 69.2154 186.218 71.0772 186.764 71.6249C187.31 72.1725 189.712 73.5962 189.712 73.5962C189.712 73.5962 191.787 74.8008 191.787 75.458C191.787 76.1151 192.332 77.8674 192.223 78.5244C192.114 79.1815 191.459 81.7005 191.131 82.1385C190.804 82.5766 189.494 85.0954 189.494 85.0954L172.898 103.495L164.928 109.409L153.791 115.432L145.384 117.732L146.585 125.289L148.441 131.422L141.344 138.212L94.5043 150.697L75.3514 136.547Z" fill="#FBF568"/>
<path d="M109.461 0.00271606L103.784 1.86451L95.922 9.64043L86.6417 30.0109L87.1874 33.9541L85.9865 35.4869L82.9296 37.8967L75.9415 46.0009L71.4653 61.7712L70.4828 60.5667C70.4828 60.5667 67.3163 58.595 66.6612 58.376C66.0061 58.157 63.2764 58.376 63.2764 58.376C63.2764 58.376 59.0182 58.4858 58.4722 58.4858C57.9263 58.4858 55.9613 59.3622 55.4153 59.8002C54.8694 60.2383 53.996 59.9095 53.996 59.9095L51.048 61.443L50.1744 67.4664L52.14 76.0087L55.6338 85.9747L60.6562 93.0934L71.0259 105.263L81.2173 110.529L77.5115 123.539L75.3499 136.549L94.5023 150.699L141.342 138.214L148.439 131.424L146.583 125.291L145.382 117.734L153.789 115.434L164.926 109.411L172.896 103.497L189.491 85.0974C189.491 85.0974 190.801 82.5791 191.129 82.141C191.456 81.7029 192.112 79.1838 192.221 78.5266C192.33 77.8695 191.784 76.1175 191.784 75.4603C191.784 74.8032 189.71 73.5985 189.71 73.5985C189.71 73.5985 187.307 72.1745 186.762 71.627C186.216 71.0795 185.124 69.2179 185.124 69.2179L181.849 68.9989L178.573 67.0273L174.752 68.451L170.494 69.9845L167.983 65.0558L164.052 58.5942L166.345 54.7615L170.821 44.1384L172.459 32.9673L171.476 23.3302L168.42 16.5398L164.707 16.1017L159.357 16.3207L145.71 23.9868L143.526 25.6295C143.526 25.6295 142.98 25.411 142.216 24.9729C141.452 24.5348 134.027 21.7967 134.027 21.7967L122.126 19.9349L119.615 13.0353L109.461 0.00271606ZM159.874 84.2653C163.92 84.1156 164.377 88.4627 159.857 89.2419C158.023 89.5582 156.179 89.8262 154.324 89.986C152.476 90.123 150.586 90.2598 148.759 89.8742C143.972 88.8643 145.542 86.599 150.212 85.1372C150.229 85.1322 150.247 85.1203 150.265 85.1206C150.9 85.133 151.527 85.1753 152.164 85.1571C152.835 85.138 153.28 85.0954 153.954 85.044C155.651 84.8936 157.339 84.6496 159.017 84.3581C159.318 84.3058 159.604 84.2752 159.874 84.2653Z" fill="#FBF568"/>
<path d="M106.787 4.14058C106.495 4.14404 106.203 4.16858 105.912 4.20828C105.602 4.2503 105.294 4.30111 104.988 4.36539C104.294 4.6805 103.632 5.05757 102.985 5.462C102.262 5.92014 101.561 6.41118 100.874 6.92138C100.413 7.25071 100.01 7.64494 99.6041 8.03779C99.2578 8.42095 98.9273 8.81833 98.5879 9.20784C98.3262 9.50488 98.0618 9.8003 97.8385 10.1282C97.5639 10.5738 97.2648 11.0036 96.9624 11.4305C96.6108 11.9744 96.2418 12.5068 95.8799 13.0437C95.6799 13.3592 95.7852 13.1961 95.5647 13.5323C95.5448 13.5628 95.5245 13.593 95.5043 13.6224C95.4717 13.6868 95.4394 13.7509 95.4068 13.8152C95.1281 14.366 94.8385 14.911 94.5701 15.4669C94.3546 15.9039 94.1236 16.3329 93.9105 16.7711C93.6571 17.2699 93.3845 17.7604 93.0872 18.2343C92.7785 18.6924 92.4484 19.1358 92.0901 19.5563C91.7181 19.9913 91.3566 20.4392 90.902 20.7929C90.8714 20.8167 90.8397 20.8406 90.8077 20.865L86.6409 30.0109L87.1866 33.9541L85.9857 35.4869L82.9288 37.8967L82.222 38.7161C82.9498 38.222 83.6927 37.7506 84.4754 37.3481C85.0525 37.0513 85.5718 36.9196 86.0143 36.9125C86.4163 36.9059 86.7549 37.002 87.0165 37.1705C87.3651 36.9168 87.7123 36.6607 88.0544 36.3983C88.3872 36.1458 88.7112 35.8826 89.0528 35.6421C89.7606 35.1439 90.4186 34.9481 90.963 34.9664C92.5959 35.0214 93.2077 36.9999 91.084 38.4939C90.7688 38.7156 90.4697 38.96 90.1626 39.1932C89.7379 39.519 89.3059 39.835 88.8726 40.1493C88.4788 40.4219 88.086 40.6942 87.7048 40.9841C87.4464 41.1946 87.2025 41.422 86.9573 41.6477C86.5469 42.0164 86.1452 42.3952 85.7297 42.7583C85.2596 43.1724 84.7805 43.5756 84.2965 43.9731C83.7095 44.4519 83.1539 44.9667 82.5798 45.4605C81.9507 46.0245 81.3153 46.5812 80.6869 47.1459C80.0618 47.7301 79.456 48.3354 78.8716 48.9604C78.191 49.6931 77.5617 50.4705 76.9716 51.2775C76.4438 52.0198 75.9558 52.7866 75.4976 53.5736C75.1452 54.2054 74.799 54.8412 74.4693 55.4852C73.9932 56.4153 73.3784 56.9196 72.7947 57.0857L71.4646 61.7711L70.4821 60.5665C70.4821 60.5665 67.3157 58.5949 66.6605 58.3759C66.0054 58.1568 63.2757 58.3759 63.2757 58.3759C63.2757 58.3759 59.0175 58.4857 58.4716 58.4857C57.9257 58.4857 55.9606 59.362 55.4146 59.8001C54.8687 60.2382 53.9953 59.9093 53.9953 59.9093L51.0473 61.4429L50.1737 67.4663L52.1394 76.0086L55.6331 85.9745L60.6556 93.0933L71.0253 105.263L80.9601 110.396C81.1459 109.886 81.3434 109.381 81.5561 108.881C81.8829 108.132 82.2333 107.395 82.6258 106.679C82.9314 106.106 83.2385 105.535 83.5548 104.969C83.8095 104.496 84.0473 104.013 84.2463 103.514C84.4355 103.09 84.6438 102.675 84.8372 102.252C85.0175 101.862 85.2003 101.473 85.3943 101.089C85.9807 99.9284 86.7685 99.4381 87.4446 99.4436C88.5714 99.4522 89.3881 100.838 88.4481 102.791C88.2987 103.101 88.1519 103.413 88.0075 103.725C87.8265 104.132 87.6177 104.526 87.4401 104.934C87.2065 105.516 86.927 106.077 86.6315 106.629C86.3167 107.194 86.01 107.763 85.7057 108.333C85.3561 108.968 85.0471 109.622 84.7576 110.286C84.4707 110.964 84.2128 111.653 83.9782 112.35C83.688 113.172 83.4107 113.998 83.1276 114.822C82.8142 115.737 82.471 116.641 82.1158 117.541C81.8126 118.3 81.5391 119.071 81.2881 119.85C80.5891 122.016 78.9152 122.294 78.1497 121.297L77.5111 123.539L75.3494 136.55L94.5018 150.7L141.342 138.215L148.439 131.424L146.582 125.292L145.382 117.735L153.788 115.435L164.925 109.411L172.895 103.497L189.491 85.098C189.491 85.098 190.801 82.5797 191.128 82.1416C191.456 81.7035 192.111 79.1844 192.22 78.5273C192.33 77.8701 191.784 76.1181 191.784 75.4609C191.784 74.8038 189.709 73.5992 189.709 73.5992C189.709 73.5992 187.307 72.1751 186.761 71.6276C186.215 71.0801 185.123 69.2186 185.123 69.2186L181.848 68.9995L178.573 67.0279L174.751 68.4516L170.494 69.9851L167.982 65.0564L164.052 58.5949L166.345 54.7622L170.821 44.1391L171.495 39.5393C170.796 39.3059 170.182 38.4894 170.131 37.0728C170.117 36.7094 170.104 36.3457 170.084 35.9826C170.027 35.019 169.948 34.0571 169.809 33.1015C169.657 32.0389 169.496 30.9772 169.301 29.9215C169.122 28.9249 168.935 27.9288 168.811 26.9235C168.714 26.1816 168.645 25.4355 168.505 24.6996C168.382 23.9557 168.243 23.2128 168.012 22.4936C167.842 22.0057 167.69 21.4983 167.313 21.1262C166.765 20.6473 166.115 20.3434 165.427 20.1145C164.483 19.8024 163.522 19.5521 162.526 19.4797C161.532 19.3856 160.531 19.3233 159.534 19.4222C158.507 19.5142 157.485 19.6464 156.481 19.8884C155.147 20.1803 153.82 20.5037 152.488 20.8062C151.646 21.0128 152.073 20.9054 151.261 21.1141C150.991 21.1834 150.72 21.2608 150.447 21.3261L146.173 23.7269C146.084 23.9013 145.976 24.0805 145.849 24.2627C145.601 24.6185 145.377 24.9892 145.14 25.353C144.738 25.9358 144.306 26.497 143.817 27.0103C143.726 27.1016 143.639 27.1989 143.542 27.2843C142.972 27.786 142.266 28.051 141.505 27.9715C141.017 27.9161 140.53 27.8381 140.065 27.6752C139.64 27.5251 139.226 27.3479 138.811 27.1693C138.366 26.9757 137.921 26.7848 137.462 26.6277C136.876 26.4405 136.288 26.2628 135.703 26.0727C135.002 25.8685 134.294 25.6927 133.594 25.4871C132.88 25.2818 132.167 25.0731 131.452 24.8701C130.775 24.6821 130.095 24.5053 129.419 24.3164C128.828 24.1462 128.234 23.9878 127.641 23.8227C127.186 23.7023 126.728 23.5915 126.263 23.5129C125.844 23.4452 125.424 23.3868 125 23.3698C124.506 23.3377 124.013 23.2966 123.518 23.2811C122.763 23.2258 122.104 23.1197 121.57 22.5012C121.444 22.3546 121.369 22.1699 121.268 22.0043C121.221 21.8249 121.153 21.6501 121.126 21.4666C121.062 21.0409 121.174 20.6152 121.324 20.2217C121.33 20.2085 121.334 20.1989 121.337 20.1924C121.341 20.1429 121.346 20.0927 121.354 20.0435C121.385 19.8029 121.37 19.5581 121.39 19.3155C121.413 18.9761 121.451 18.6371 121.533 18.307L119.614 13.0359L118.825 12.0236C118.232 12.0458 117.508 11.7779 116.769 11.093C116.705 11.0336 116.641 10.9743 116.577 10.9148C116.139 10.4981 115.647 10.1439 115.202 9.73521C114.691 9.27902 114.199 8.8031 113.684 8.35122C113.258 7.96893 112.825 7.59464 112.371 7.24439C111.87 6.81836 111.386 6.37302 110.882 5.95038C110.355 5.52317 109.821 5.09904 109.233 4.75988C108.735 4.4957 108.226 4.27353 107.661 4.19976C107.371 4.1547 107.079 4.13715 106.787 4.14058ZM164.706 16.1024L163.978 16.1325C164.837 16.2806 165.679 16.5127 166.511 16.7833C167.243 17.0419 167.969 17.3383 168.631 17.7509C168.855 17.8903 168.984 17.9803 169.11 18.0779L168.418 16.5405L164.706 16.1024ZM121.334 20.2079C121.331 20.2166 121.329 20.2274 121.325 20.2405L121.326 20.2392H121.328L121.328 20.2405C121.329 20.2295 121.332 20.2189 121.334 20.2079ZM124.584 21.4814C124.58 21.4924 124.575 21.5036 124.571 21.5146C124.572 21.5151 124.573 21.5155 124.575 21.5159L124.576 21.5171L124.577 21.5184L124.578 21.5191C124.579 21.5193 124.579 21.5207 124.579 21.5209C124.581 21.5084 124.583 21.4946 124.585 21.4813L124.584 21.4814ZM124.576 21.5293C124.571 21.5392 124.556 21.5517 124.553 21.5625C124.553 21.5644 124.553 21.567 124.553 21.569C124.554 21.5725 124.556 21.5756 124.557 21.5773L124.558 21.5785L124.559 21.5798H124.561L124.562 21.5792C124.567 21.5731 124.572 21.5527 124.576 21.5293ZM132.755 21.5989C133.355 21.7708 133.955 21.9456 134.555 22.1182C134.988 22.2444 135.423 22.3607 135.858 22.479C134.792 22.0806 134.025 21.7976 134.025 21.7976L132.755 21.5989ZM78.0392 43.5662L75.9392 46.0014L75.5253 47.4602C75.7847 47.1543 76.0506 46.854 76.3244 46.5603C76.9788 45.8641 77.6533 45.1855 78.3543 44.5364C78.4232 44.4745 78.4922 44.4129 78.5612 44.3512C78.3024 44.1638 78.1194 43.8917 78.0392 43.5662ZM161.895 58.2477C161.902 58.2473 161.908 58.2476 161.912 58.2503L161.913 58.2509L161.914 58.2516L161.915 58.2528L161.916 58.2548C161.916 58.2553 161.917 58.2571 161.917 58.258C162.284 58.238 162.23 58.2727 162.097 58.7006C162.116 58.7045 162.135 58.709 162.154 58.7134C162.158 58.7133 162.161 58.7134 162.164 58.7134C162.27 58.7133 162.374 58.7316 162.48 58.7408C162.562 58.7627 162.649 58.7742 162.728 58.8066C163.047 58.937 163.333 59.1266 163.488 59.4185C163.819 59.5532 163.829 60.0491 163.628 60.5591C163.892 60.7479 164.147 60.9488 164.401 61.1512C164.706 61.403 164.991 61.675 165.268 61.9566C165.568 62.2485 165.837 62.5677 166.092 62.8999C166.384 63.2848 166.658 63.6825 166.908 64.0962C167.235 64.6465 167.523 65.2188 167.787 65.8021C168.065 66.4305 168.285 67.0818 168.478 67.7405C168.649 68.3249 168.769 68.9212 168.853 69.5237C168.913 70.0599 168.99 70.5923 169.093 71.1216C169.24 71.8189 169.316 72.5269 169.354 73.2375C169.366 73.701 169.358 74.1649 169.337 74.6279C169.35 74.7338 169.362 74.84 169.375 74.946C169.418 75.3222 169.465 75.6996 169.46 76.079C169.459 76.3668 169.459 76.6547 169.458 76.9425C169.455 77.2166 169.455 77.4906 169.444 77.7645C169.431 78.0213 169.409 78.2779 169.362 78.5309C169.296 78.8551 169.209 79.1741 169.063 79.4723C169.005 79.5989 168.696 80.2474 168.573 80.224C168.155 80.1453 167.824 80.0947 167.56 80.0567C167.547 80.3299 167.531 80.6031 167.513 80.8761C167.474 81.2561 167.444 81.637 167.403 82.0168C167.373 82.2626 167.343 82.5082 167.323 82.7551C167.316 82.8652 167.32 82.8112 167.314 82.9186C167.182 85.3682 164.71 85.2313 164.847 82.782C164.854 82.6348 164.851 82.7095 164.861 82.5584C164.883 82.287 164.914 82.0167 164.948 81.7467C164.987 81.4023 165.011 81.0558 165.051 80.7114C165.079 80.285 165.099 79.8586 165.112 79.4314C165.133 78.948 165.141 78.4649 165.13 77.981C165.125 77.451 165.12 76.9208 165.097 76.3913C165.071 75.8716 165.033 75.3524 164.961 74.8368C164.877 74.2075 164.791 73.578 164.702 72.9495C164.614 72.2745 164.526 71.5998 164.448 70.9236C164.383 70.3482 164.312 69.7729 164.188 69.2068C164.072 68.7057 163.926 68.214 163.736 67.7353C163.545 67.2205 163.348 66.7064 163.114 66.2094C162.898 65.7136 162.692 65.214 162.478 64.7174C162.263 64.2312 162.034 63.7518 161.779 63.2855C161.508 62.8051 161.225 62.3312 160.923 61.8695C160.743 61.5862 160.564 61.2979 160.317 61.0673L160.316 61.066L160.315 61.0648L160.314 61.0641L160.312 61.0635C160.25 61.0079 160.189 60.9521 160.126 60.8968C160.118 60.8917 160.11 60.8865 160.107 60.8815L160.107 60.8802L160.105 60.8795V60.8783C160.092 60.866 160.077 60.8541 160.063 60.8418C159.714 60.4991 159.66 60.3005 159.816 60.1227C159.77 59.939 159.764 59.7336 159.797 59.5019C159.836 59.2194 159.97 59.0762 160.123 58.8594C160.407 58.5434 160.78 58.3926 161.186 58.3146C161.327 58.2905 161.469 58.2798 161.612 58.2731C161.617 58.2724 161.622 58.2722 161.626 58.2711C161.694 58.2616 161.763 58.2612 161.832 58.259C161.849 58.2584 161.875 58.2494 161.895 58.2477ZM161.996 59.0646C161.995 59.071 161.993 59.0778 161.991 59.0844C162 59.1491 162.009 59.2112 162.018 59.2709C162.071 59.3178 162.124 59.3648 162.177 59.412C162.139 59.284 162.08 59.1688 161.996 59.0646ZM162.715 59.5225L162.714 59.5244C162.714 59.527 162.715 59.5327 162.716 59.5359L162.717 59.5372L162.718 59.5385H162.72C162.723 59.5374 162.725 59.5364 162.728 59.5353C162.724 59.5314 162.721 59.5277 162.718 59.5238L162.716 59.5231L162.715 59.5225ZM140.557 110.242C141.173 110.243 141.799 110.856 141.821 112.082C141.821 112.108 141.822 112.135 141.823 112.162C142.14 112.438 142.388 112.924 142.449 113.629C142.515 114.399 142.649 115.161 142.806 115.916C142.917 116.429 143.043 116.939 143.173 117.447C143.746 117.479 144.354 118.029 144.524 119.147C144.656 120.017 144.821 120.881 145 121.743C145.338 123.272 145.72 124.791 146.079 126.316C146.235 127.02 146.385 127.725 146.536 128.43C146.708 129.232 146.552 129.825 146.249 130.168C146.266 130.249 146.282 130.33 146.299 130.411C146.338 130.628 146.385 130.843 146.443 131.055C146.988 133.05 145.359 133.821 144.463 132.593C144.054 133.493 143.568 135.201 142.927 133.812C142.835 133.613 142.746 133.413 142.703 133.196C142.623 132.843 142.544 132.49 142.468 132.137C142.34 131.547 142.22 130.955 142.065 130.371C141.835 129.488 141.619 128.601 141.429 127.708C141.158 126.472 140.899 125.232 140.663 123.989C140.36 122.448 140.037 120.908 139.834 119.35C139.635 117.689 139.513 116.021 139.458 114.348C139.42 113.593 139.361 112.838 139.351 112.082C139.335 110.856 139.941 110.243 140.557 110.242Z" fill="#F3A10D"/>
<path d="M164.71 16.1018L163.982 16.1318C164.841 16.28 165.683 16.5121 166.514 16.7827C167.061 16.9757 167.604 17.1894 168.12 17.4571C168.166 17.4555 168.211 17.4543 168.257 17.4526C168.404 17.4496 168.598 17.4419 168.825 17.4335L168.422 16.54L164.71 16.1018ZM96.5923 40.2567C94.5195 40.7585 92.4344 41.2086 90.3714 41.7505C88.6898 42.1992 87.0073 42.6493 85.3279 43.1103C85.2759 43.155 85.2241 43.1993 85.1719 43.2438C88.9507 42.1452 92.7694 41.1909 96.5923 40.2567ZM77.4546 45.4019C76.9962 45.5455 76.5389 45.6915 76.0819 45.8394L75.9431 46.0003L75.8743 46.2424C76.2562 46.1054 76.6392 45.9702 77.0223 45.8362C77.1654 45.6903 77.3095 45.5457 77.4546 45.4019ZM97.3476 51.1021C97.1381 51.1667 96.9335 51.2469 96.7191 51.2918C96.6991 51.296 96.6871 51.3 96.6829 51.3027L96.6816 51.3033L96.681 51.3052L96.6822 51.3065C96.7214 51.3218 97.2688 51.2718 97.3476 51.1021ZM95.0171 52.1278C95.2218 53.1568 94.5584 54.3867 92.8426 57.5496C92.4677 58.2407 91.5614 58.4593 90.8961 58.8761C89.61 59.6817 88.2385 60.3657 86.8815 61.0559C93.3139 64.0168 92.5432 69.8876 87.7805 70.7478C87.9657 70.8682 88.1504 70.9892 88.3358 71.1093C88.7708 71.3542 89.2042 71.6103 89.655 71.8247C90.1021 72.1015 90.5924 72.2822 91.075 72.4838C91.1656 72.5195 91.2568 72.5553 91.3475 72.5911C97.7855 75.1291 95.2078 81.6694 88.7782 79.1094C88.648 79.0576 88.5181 79.006 88.3879 78.9542C88.1445 78.8525 87.8997 78.7529 87.6569 78.6489C87.4611 78.6051 87.2608 78.5533 87.0559 78.4931C86.0724 78.2046 85.0942 77.8974 84.1276 77.5555C83.1212 77.1956 82.1122 76.8279 81.2113 76.2399C80.5742 75.827 79.9804 75.3649 79.4348 74.838C79.1522 74.6438 78.8736 74.4441 78.5969 74.2408C78.2096 73.9769 77.8154 73.7246 77.4183 73.4757C77.043 73.2246 76.6578 72.9894 76.2754 72.7495C75.8336 72.4561 75.4069 72.1399 75.0096 71.7876C74.637 71.4724 74.255 71.1668 73.9208 70.8092C73.4157 70.2685 73.2232 69.7309 73.2465 69.2929C73.0434 69.0396 72.8481 68.7794 72.662 68.5125C72.4943 68.2458 72.3325 67.9761 72.1768 67.7026C70.4421 66.0993 69.8513 64.3884 70.0559 63.0632C69.9437 62.7838 69.8353 62.5031 69.7306 62.2208C69.4951 61.5417 69.2635 60.8622 69.027 60.1834C68.9792 60.0401 68.9295 59.8972 68.8786 59.7549C66.1058 60.3729 63.9218 59.7048 62.8202 58.3868C61.705 58.4151 58.9097 58.4852 58.4746 58.4852C57.9286 58.4852 55.9636 59.3615 55.4176 59.7996C54.8717 60.2376 53.9983 59.9088 53.9983 59.9088L51.0503 61.4423L50.1767 67.4657L52.1423 76.008L55.6361 85.974L60.6585 93.0928L71.0282 105.263L80.9631 110.396C81.1488 109.886 81.3463 109.38 81.5591 108.881C81.8858 108.132 82.2362 107.395 82.6288 106.678C82.9343 106.106 83.2415 105.535 83.5578 104.968C83.6383 104.819 83.7175 104.668 83.794 104.516C83.7579 103.85 84.0359 103.251 84.5549 102.857C84.6509 102.656 84.7472 102.455 84.8401 102.252C85.0204 101.862 85.2033 101.472 85.3973 101.088C85.695 100.499 86.0447 100.083 86.4052 99.8161C86.3709 99.1225 86.8106 98.6892 87.4061 98.7124C87.8729 98.7306 88.4353 99.0293 88.94 99.7037C89.0804 99.8912 89.2445 100.061 89.4042 100.232C89.6832 100.527 90.0003 100.779 90.3204 101.026C90.837 101.427 91.3798 101.793 91.9187 102.163C92.4883 102.553 93.0951 102.881 93.7117 103.19C94.3841 103.532 95.0902 103.801 95.8027 104.047C96.5553 104.29 97.3138 104.513 98.0803 104.708C98.6542 104.855 99.2351 104.972 99.8173 105.079C100.285 105.17 100.757 105.242 101.228 105.31C101.599 105.354 101.971 105.383 102.339 105.445C104.752 105.847 104.315 108.356 101.915 107.886C101.689 107.842 101.459 107.827 101.23 107.806C101.328 108.091 101.302 108.378 101.169 108.616C101.16 108.801 101.143 108.993 101.116 109.192C100.917 110.684 100.677 112.17 100.451 113.658C100.088 116.315 99.645 118.96 99.129 121.592C98.6531 123.81 98.1263 126.014 97.7027 128.243C97.5274 129.19 97.6112 128.741 97.4499 129.591C97.1815 131.005 96.5739 131.925 95.8722 132.396C96.1198 133.005 96.2898 133.632 96.2638 134.321C96.2501 134.683 96.1306 135.032 96.0638 135.388C95.9501 135.644 95.8517 135.909 95.7226 136.158C95.5937 136.406 95.357 136.76 95.1476 137.055C96.5079 138.576 96.5782 139.172 96.1262 139.904C96.3845 140.374 95.9756 140.73 95.1546 141.871C93.5622 143.426 91.9027 144.915 90.1926 146.339C89.8909 146.572 89.6236 146.764 89.3808 146.913L94.5051 150.699L139.804 138.625C139.49 138.293 139.202 137.885 138.952 137.399C138.617 137.317 138.196 137.096 137.672 136.703C137 136.2 136.376 135.642 135.845 134.988C135.308 134.345 134.812 133.671 134.298 133.01C133.898 132.464 133.429 131.977 132.913 131.539C132.077 130.773 131.261 129.985 130.36 129.294C129.12 128.247 127.869 127.216 126.611 126.192C125.035 124.897 123.402 123.68 121.719 122.527C120.409 121.545 119.118 120.535 117.954 119.378C116.484 117.919 115.894 116.454 115.921 115.247C115.909 115.23 115.897 115.213 115.884 115.196C112.531 113.564 112.702 110.077 115.732 109.077C115.567 108.58 115.988 107.987 116.994 107.987H118.049C118.416 107.986 118.784 108.001 119.151 108.025C119.494 108.049 119.837 108.083 120.18 108.11C120.708 108.154 121.238 108.19 121.768 108.22C122.094 108.241 122.422 108.248 122.749 108.253C123.286 108.254 123.822 108.288 124.358 108.323C125.042 108.371 125.724 108.445 126.406 108.508C127.088 108.576 127.77 108.644 128.452 108.708C129.119 108.778 129.788 108.834 130.457 108.883C131.036 108.922 131.615 108.961 132.195 108.986C132.761 109.017 133.327 109.039 133.893 109.068C134.444 109.092 134.995 109.122 135.545 109.152C136.119 109.185 136.693 109.207 137.268 109.224C137.284 109.224 137.3 109.225 137.317 109.226C137.354 109.222 137.394 109.22 137.436 109.22C137.833 109.221 138.23 109.202 138.626 109.176C139.121 109.142 139.614 109.092 140.104 109.016C140.486 108.954 140.863 108.871 141.242 108.795C141.602 108.728 141.959 108.642 142.315 108.555C142.667 108.464 143.008 108.341 143.347 108.21C143.408 108.173 143.47 108.135 143.53 108.096C144.21 107.679 144.871 107.231 145.527 106.778C146.204 106.28 146.87 105.767 147.507 105.219C148.149 104.674 148.78 104.117 149.379 103.525C150.064 102.849 150.728 102.152 151.395 101.457C152.141 100.654 152.883 99.8451 153.6 99.0145C154.204 98.3227 154.809 97.6321 155.411 96.9381C155.768 96.5188 156.132 96.1038 156.469 95.6685C156.986 95.0028 157.557 94.7409 158.024 94.7628C158.098 94.7665 158.169 94.7769 158.238 94.7941C158.606 94.3437 158.97 93.8891 159.381 93.4765C159.76 93.0706 160.14 92.6654 160.531 92.2706C160.849 91.9589 161.121 91.6024 161.44 91.2916C161.737 90.9753 162.013 90.6438 162.267 90.292C162.498 89.9626 162.731 89.6355 162.924 89.281C163.279 88.7214 163.653 88.174 164.092 87.676C164.098 87.6686 164.105 87.6611 164.112 87.6536C163.193 87.9554 162.274 88.2577 161.343 88.5216C161.019 88.6111 160.694 88.6981 160.369 88.7828C160.149 88.8602 159.928 88.9353 159.706 89.0051C159.134 89.1926 158.562 89.3764 157.988 89.5556C157.394 89.7375 156.795 89.9043 156.191 90.0461C155.639 90.1691 155.086 90.2882 154.531 90.3942C154.098 90.4774 153.665 90.5668 153.23 90.642C152.845 90.7144 152.462 90.7889 152.079 90.8681C151.622 90.9588 151.165 91.0485 150.703 91.1031C150.373 91.14 150.041 91.1699 149.708 91.1773C149.101 91.1914 148.92 90.7653 149.166 90.5022C149.135 90.411 149.144 90.3102 149.196 90.2174C148.815 90.2179 148.433 90.2124 148.051 90.1994C147.067 90.1805 146.082 90.1629 145.1 90.0908C141.148 89.801 140.666 86.5163 143.221 85.4597C142.438 84.2541 143.192 82.4135 145.618 81.726C145.767 81.3706 146.017 81.0263 146.373 80.722C145.72 79.7857 145.999 78.4344 147.334 77.5381C146.737 76.9418 146.604 76.1062 146.959 75.3315C145.978 74.3422 146.238 72.6988 148.231 71.6903C146.976 71.1883 146.467 70.0713 146.836 69.0398C145.652 69.28 144.472 69.5329 143.293 69.8011C136.892 71.2581 133.914 67.3613 135.529 63.9834C134.697 64.1702 133.864 64.3505 133.031 64.5256C130.797 64.9773 128.553 65.3663 126.306 65.7461C119.209 66.9462 116.444 61.9724 119.32 58.6102C118.658 56.9619 119.155 55.0964 120.811 53.8226C119.842 53.8048 118.872 53.78 117.902 53.7472C113.134 53.5683 108.368 53.3858 103.608 53.0491C101.977 52.9337 98.7907 52.6814 97.0517 52.4552C96.3715 52.3666 95.6934 52.242 95.0171 52.1278ZM82.1116 63.9945C81.9295 64.1368 81.7679 64.2706 81.706 64.3413C81.6991 64.3492 81.6947 64.3548 81.6933 64.3579V64.3592L81.6927 64.3605L81.6946 64.3611C81.7164 64.3585 81.9094 64.2073 81.9868 64.1561C82.0302 64.1021 82.0716 64.048 82.1116 63.9945ZM168.307 65.687C168.134 65.7174 167.957 65.7448 167.776 65.7694C167.781 65.78 167.786 65.7907 167.791 65.8013C168.069 66.4297 168.289 67.081 168.482 67.7397C168.515 67.8508 168.545 67.9625 168.574 68.0744C169.024 68.1477 169.41 68.288 169.728 68.4761L168.307 65.687ZM178.576 67.0276L174.755 68.4513L170.773 69.885C170.841 70.2397 170.806 70.6132 170.664 70.9759C172.211 71.5547 172.679 72.9969 171.928 74.1445C172.314 75.1629 171.801 76.4418 170.229 77.1712C170.601 78.0293 170.32 79.1161 169.252 79.9246C170.168 80.1975 170.734 80.8167 170.883 81.5348C171.622 81.055 172.325 80.8551 172.933 80.868C174.623 80.9037 175.576 82.5849 174.514 84.4708C174.806 84.4707 175.077 84.5193 175.323 84.6094C176.009 84.2083 176.655 84.0274 177.222 84.0167C179.387 83.9758 180.404 86.4201 178.115 88.6025C178.067 88.7282 178.014 88.8559 177.953 88.9863C178.048 88.911 178.143 88.8369 178.24 88.7634C178.557 88.5064 178.877 88.2538 179.202 88.0079C179.438 87.8202 179.683 87.6431 179.908 87.4426C180.111 87.2495 180.315 87.056 180.516 86.8602L180.588 86.7892C181.076 86.3026 181.564 86.0922 181.975 86.0797C183.027 86.0475 183.577 87.3065 182.328 88.5475C182.296 88.5793 182.264 88.6116 182.232 88.6433C181.999 88.8681 181.767 89.0936 181.529 89.3127C181.257 89.5475 180.972 89.7681 180.688 89.9877C180.365 90.2316 180.049 90.4832 179.733 90.7369C179.408 90.9838 179.096 91.246 178.786 91.5116C178.436 91.7882 178.098 92.0802 177.752 92.3617C177.298 92.7392 176.864 93.1408 176.42 93.5299C175.788 94.0729 175.126 94.5786 174.457 95.0742C173.432 95.8231 172.374 96.5236 171.316 97.2253C169.932 98.1671 168.584 99.1595 167.229 100.143C165.535 101.36 163.825 102.555 162.111 103.744C160.409 104.91 158.723 106.101 156.985 107.214C155.66 108.029 154.335 108.847 152.988 109.625C151.896 110.241 150.801 110.859 149.625 111.303C148.671 111.669 147.698 111.987 146.701 112.209C145.761 112.415 144.817 112.605 143.863 112.733C143.345 112.799 142.825 112.863 142.303 112.902C142.377 113.111 142.429 113.353 142.452 113.628C142.519 114.398 142.653 115.16 142.81 115.916C142.921 116.429 143.047 116.938 143.176 117.446C143.749 117.478 144.358 118.029 144.528 119.146C144.66 120.016 144.825 120.881 145.004 121.742C145.342 123.271 145.724 124.791 146.082 126.315C146.239 127.019 146.388 127.724 146.54 128.429C146.712 129.232 146.556 129.825 146.253 130.168C146.27 130.249 146.286 130.329 146.303 130.41C146.342 130.627 146.389 130.842 146.447 131.055C146.908 132.742 145.813 133.554 144.922 133.021C144.974 133.311 145.028 133.602 145.089 133.89C145.135 134.107 145.173 134.319 145.201 134.525L148.442 131.424L146.586 125.291L145.385 117.734L153.792 115.434L164.929 109.411L172.899 103.497L189.494 85.0977C189.494 85.0977 190.804 82.5794 191.132 82.1412C191.459 81.7032 192.115 79.1841 192.224 78.5269C192.333 77.8698 191.787 76.1177 191.787 75.4606C191.787 74.8035 189.713 73.5988 189.713 73.5988C189.713 73.5988 187.311 72.1748 186.765 71.6273C186.219 71.0798 185.127 69.2182 185.127 69.2182L181.852 68.9991L178.576 67.0276ZM67.2624 68.835C68.2577 68.8387 69.38 69.3629 70.3798 70.5186C70.898 70.6835 71.5627 70.916 72.4536 71.163C72.6496 71.3819 72.8568 71.5914 73.042 71.8196C73.6401 72.5569 74.0078 73.4671 74.5013 74.2702C75.1626 75.5523 75.7889 76.8552 76.2364 78.2305C76.3541 78.4163 76.4727 78.6011 76.5923 78.7856C77.2258 79.8571 77.9996 80.8297 78.7699 81.8027C79.2975 82.3943 79.8316 82.9825 80.4477 83.483C81.1358 84.0309 81.7853 84.6265 82.4292 85.2253C83.1348 85.8661 83.7351 86.6019 84.2643 87.3924C84.453 87.6721 84.3618 87.5408 84.5368 87.7871C85.7315 89.4687 86.0624 91.0106 85.8331 92.1972C86.1855 91.9312 86.5313 91.8087 86.8366 91.798C87.0325 91.6699 87.2294 91.5437 87.4268 91.418C89.4915 90.1031 90.816 92.1954 88.7513 93.5103C88.37 93.7531 87.9901 93.998 87.6173 94.2537C86.9345 94.7129 86.2894 95.223 85.6007 95.6728C85.4001 95.7935 85.1979 95.9115 84.9939 96.0267C84.8864 96.0987 84.7778 96.1695 84.6679 96.2381C84.2961 96.4699 83.9319 96.7136 83.5556 96.9381C83.1062 97.2041 82.6462 97.4534 82.177 97.6827C81.6564 97.9359 81.1225 98.1577 80.5795 98.3585C80.0173 98.5562 79.4478 98.7361 78.8616 98.8477C78.3157 98.9503 77.7656 99.0261 77.2099 99.0476C76.7311 99.065 76.253 99.0639 75.7741 99.0501C75.2805 99.0373 74.7857 99.0212 74.295 98.9626C73.7382 98.8879 73.1867 98.7776 72.6548 98.5921C72.0623 98.386 71.4804 98.1481 70.9325 97.8398C70.326 97.5065 69.7462 97.1293 69.2057 96.6953C68.608 96.2363 68.006 95.7822 67.4388 95.2851C66.7774 94.7029 66.1336 94.1011 65.533 93.4553C64.8644 92.7366 64.2048 92.0079 63.6012 91.2327C63.0239 90.4582 62.466 89.6689 61.9597 88.8453C61.5091 88.1351 61.0796 87.4125 60.6347 86.6988C60.2217 86.0335 59.8131 85.3655 59.4083 84.6952C59.0724 84.125 58.7406 83.5524 58.4176 82.9746C58.1202 82.4395 57.8364 81.8966 57.5943 81.3338C57.4292 80.9407 57.2677 80.546 57.0983 80.1548C56.9752 79.8714 56.8612 79.5843 56.7385 79.3008C56.5929 78.942 56.457 78.5788 56.3367 78.2106C56.2188 77.7973 56.1123 77.3786 56.0636 76.9505C55.9161 75.6556 56.5137 74.9889 57.1626 75.012C57.4664 75.0231 57.7816 75.1844 58.0368 75.5038C57.8048 73.0084 59.1419 71.4425 60.7938 71.3652C61.2699 71.343 61.7721 71.4442 62.2704 71.6826C62.7473 70.8221 63.598 70.3146 64.5951 70.2865C64.6942 70.2841 64.7946 70.2855 64.8963 70.2927C65.3874 69.3547 66.2607 68.8313 67.2624 68.835ZM94.9597 116.914C94.859 116.948 94.7585 116.978 94.6578 117.004C94.6581 117.004 94.6583 117.006 94.6585 117.007C94.7308 117.185 94.7954 117.366 94.8521 117.548C94.8884 117.337 94.9243 117.125 94.9597 116.914ZM78.1545 121.296L77.5159 123.539L75.3542 136.549L75.9998 137.026C75.9873 136.6 76.0056 136.163 76.0278 135.757C76.0907 134.607 76.2401 133.465 76.3895 132.324C76.7517 129.755 77.1785 127.195 77.6005 124.635C77.6235 124.495 77.8849 122.885 77.9234 122.677C77.9736 122.405 77.9528 122.104 78.0902 121.864C78.1607 121.741 78.2256 121.599 78.2895 121.45C78.2419 121.403 78.1968 121.351 78.1545 121.296ZM82.7689 125.803C82.7589 125.86 82.7486 125.916 82.7383 125.973C82.7601 125.919 82.782 125.866 82.8039 125.812C82.7921 125.809 82.7805 125.805 82.7689 125.803ZM94.6323 141.887L94.6304 141.888C94.5986 141.903 94.5665 141.918 94.5349 141.934C94.5398 141.939 94.5435 141.942 94.5489 141.947L94.5502 141.948L94.5515 141.948C94.5523 141.949 94.5539 141.949 94.5552 141.949C94.5794 141.955 94.6343 141.902 94.638 141.89V141.888L94.6335 141.887L94.6323 141.887Z" fill="#DE8B10"/>
<path d="M102.585 99.4449C102.585 99.4449 95.3793 121.348 95.161 139.091C94.9426 156.832 119.4 130.986 119.4 130.986C119.4 130.986 116.998 108.645 119.836 104.265C122.675 99.8839 102.585 99.4449 102.585 99.4449Z" fill="#FBFDFA"/>
<path d="M102.585 99.4449C102.585 99.4449 101.784 101.88 100.708 105.784C101.123 105.849 101.538 105.915 101.953 105.979C104.17 106.309 106.39 106.63 108.61 106.945C110.491 107.226 112.378 107.466 114.266 107.701C115.763 107.887 117.265 108.022 118.765 108.166C118.981 106.436 119.323 105.056 119.836 104.263C122.675 99.8825 102.585 99.4449 102.585 99.4449ZM98.3632 115.184C96.7454 122.44 95.2585 131.178 95.1611 139.09C94.9427 156.831 119.4 130.985 119.4 130.985C119.4 130.985 118.979 127.072 118.698 122.199C117.74 122.258 116.78 122.27 115.819 122.194C113.737 122.042 111.653 121.844 109.617 121.36C108.107 120.987 106.604 120.539 105.208 119.84C104.218 119.338 103.237 118.813 102.338 118.158C101.535 117.643 100.751 117.098 100.039 116.46C99.5425 116.054 99.0587 115.632 98.5431 115.25C98.4833 115.228 98.4231 115.206 98.3632 115.184Z" fill="#E5E5E7"/>
<path d="M0.617058 170.004L58.9836 122.92L86.4678 146.772L117.967 119.204L141.128 138.409L169.231 112.389L193.318 136.55L220.802 108.052L211.538 98.4492L254.772 86.0591L245.508 132.213L235.934 122.92L193.318 163.81L167.686 138.099L142.672 161.951L119.203 142.746L87.0855 170.935L58.9829 146.153L11.7339 185.493L0.617058 170.004Z" fill="url(#paint1_linear_1_538)"/>
<path d="M43.466 161.834L42.501 160.208L58.2896 147.546C58.2896 147.546 59.6407 147.159 60.0267 147.352C60.4127 147.546 86.1604 170.932 86.1604 170.932L118.895 142.589L142.982 161.95L167.378 137.789L193.165 163.963L169.695 184.252L165.989 189.518C165.989 189.518 157.96 191.996 155.952 190.912C153.945 189.828 148.232 188.589 141.13 189.208C134.027 189.828 131.865 189.983 122.91 190.137C113.954 190.292 111.638 191.067 100.83 190.292C90.0218 189.518 87.088 189.673 84.4623 188.744C81.8373 187.814 72.1101 184.717 71.0282 184.562C69.9474 184.407 67.0137 182.858 67.0137 182.858C67.0137 182.858 65.4696 182.548 65.0064 181.929C64.5432 181.309 43.4661 161.833 43.4661 161.833L43.466 161.834Z" fill="#078F7B"/>
<path d="M22.3348 211.592L24.6277 195.603L25.8287 184.542L28.2307 183.337L35.3276 184.213L39.8041 184.542L42.9705 185.528L47.2286 188.485L48.5388 184.652C48.5388 184.652 48.4296 183.447 50.1765 183.666C51.9235 183.885 56.6183 184.542 56.6183 184.542L60.8764 184.433C60.8764 184.433 66.7724 184.323 67.8642 184.323C68.956 184.323 73.6508 183.994 73.6508 183.994C73.6508 183.994 76.0529 183.009 76.2712 183.994C76.4896 184.98 76.4896 186.623 76.3804 187.718C76.2712 188.813 74.9609 192.208 74.9609 192.208C74.9609 192.208 73.1048 194.618 72.8865 195.056C72.6681 195.494 71.6855 196.37 71.0304 199.108C70.3753 201.846 70.1569 204.474 69.7203 206.555C69.2836 208.636 69.0652 211.483 68.6284 212.031C68.1917 212.578 68.4101 215.207 65.5714 214.44C62.7327 213.674 61.75 213.564 60.4398 212.907C59.1296 212.25 57.7102 211.045 57.7102 211.045" fill="url(#paint2_linear_1_538)"/>
<path d="M74.633 192.534L78.1269 187.168L81.5116 183.883L86.7524 183.554L90.5737 184.868L93.7401 186.73L94.1768 187.278C94.1768 187.278 97.1247 187.168 97.9982 186.621C98.8716 186.073 102.147 184.54 102.147 184.54C102.147 184.54 104.003 184.102 105.204 184.102C106.405 184.102 109.681 184.102 110.882 184.759C112.083 185.416 113.83 187.168 113.83 187.168L115.577 188.92C115.577 188.92 116.341 188.482 116.778 187.825C117.214 187.168 117.869 184.868 117.869 184.868C117.869 184.868 119.18 183.992 120.271 183.992H127.259H133.701C134.138 183.992 135.775 184.211 135.775 184.211L138.287 186.84L139.706 188.044L141.999 184.649C141.999 184.649 146.148 184.54 148.113 184.321C150.078 184.102 161.761 183.335 161.761 183.335L163.836 191.22L168.64 184.321L208.491 183.992L211.221 191.22L215.151 184.54L224.432 184.868L222.903 213.562L139.706 213.014L135.776 211.152C135.776 211.152 133.155 213.123 132.064 213.342C130.972 213.561 115.796 212.685 115.796 212.685L111.756 211.7C111.756 211.7 108.48 213.233 106.843 213.561C105.205 213.89 101.711 214.328 99.9641 213.78C98.2172 213.233 95.1601 211.152 95.1601 211.152C95.1601 211.152 94.505 209.728 92.9765 210.495C91.448 211.262 91.7755 212.685 89.3735 213.123C86.9714 213.561 82.1674 214 81.0756 213.561C79.9838 213.123 77.0359 211.152 77.0359 211.152L73.8696 206.771L72.6686 196.148L74.633 192.534Z" fill="url(#paint3_linear_1_538)"/>
<path d="M33.8923 141.899L33.236 140.563L36.1504 138.511L36.5557 139.769L33.8923 141.899Z" fill="#0D6D5D"/>
<path d="M44.952 131.48L45.2415 132.564C45.2415 132.564 47.7506 130.957 47.6348 130.919C47.519 130.88 47.0365 130.125 47.0365 130.125L44.952 131.48Z" fill="#0D6D5D"/>
<path d="M76.4344 118.503L77.69 118.558L76.68 121.378L75.6428 121.131L76.4344 118.503Z" fill="#0D6D5D"/>
<path d="M182.785 124.472L183.403 122.188L185.333 123.659L185.449 126.757L182.785 124.472Z" fill="#0D6D5D"/>
<path d="M161.432 117.032L162.513 117.071L160.236 119.588L157.842 119.317L161.432 117.032Z" fill="#0D6D5D"/>
<path d="M180.9 98.0978L180.655 97.0847L182.947 94.429L183.302 96.9752L180.9 98.0978Z" fill="#0D6D5D"/>
<path d="M171.265 45.4809L173.258 46.6308L174.349 42.9346L174.267 42.7429L171.756 41.812L171.265 45.4809Z" fill="#0D6D5D"/>
<path d="M2.4702 172.797L58.9836 126.952L86.1597 152.042L117.967 123.544L141.437 143.989L169.54 117.35L193.627 142.75L226.671 106.818L219.568 100.313L249.523 91.0205L242.729 130.051L245.508 132.219L255.081 85.1355L211.847 98.1461L220.802 107.749L194.245 135.938L169.848 112.706L141.438 138.107L118.585 119.211L86.7773 146.16L58.9839 122.928L0 170.631L2.4702 172.797Z" fill="#CFF787"/>
<path d="M51.9222 75.1343C51.9222 75.1343 58.2548 81.4864 65.2429 78.8579C72.2306 76.2295 73.5407 69.6585 73.5407 69.6585L70.9203 61.5542L66.7714 58.2686L61.0939 58.4876L56.9449 59.3638L53.0144 60.6779L51.2674 60.897L49.5205 66.3728L50.6123 69.8774L51.9222 75.1343Z" fill="#FBFDFA"/>
<path d="M168.098 79.732C168.098 79.732 167.88 84.7698 172.247 88.0553C176.615 91.3408 185.349 89.5886 185.349 89.5886L188.843 85.4268L191.9 82.5794L191.681 76.4464L190.153 73.3799L187.751 72.7228L186.222 71.4086L185.349 69.6563L183.383 68.7801H180.763L179.016 68.123L177.924 67.4659H175.304L173.12 68.9992L171.81 70.0944L169.845 72.5038V74.2561L168.971 77.5417L168.098 79.732Z" fill="#FBFDFA"/>
<path d="M85.551 87.8396C85.551 87.8396 78.7817 59.3652 89.9184 54.1076C101.055 48.8508 113.283 50.384 113.283 50.384C113.283 50.384 116.559 44.6892 124.202 46.6605C131.844 48.6318 135.12 56.298 135.12 56.298C135.12 56.298 153.025 60.2406 153.463 75.1347C153.9 90.0288 149.096 98.5715 149.096 98.5715L140.143 103.828L114.594 102.514L99.9637 96.8192L85.551 87.8396Z" fill="#FBFDFA"/>
<path d="M149.974 28.4783L158.271 23.2215L162.639 21.9073L165.259 23.2215L166.788 28.6973L166.351 36.1445L164.822 42.4965L162.639 44.9059L158.053 37.8968L149.974 28.4783Z" fill="#FBFDFA"/>
<path d="M94.2808 28.0396L95.5909 23.0017L99.5214 14.4594L103.015 8.98352L106.509 6.79323L110.003 8.54552L112.405 13.3643L113.934 17.964L103.671 23.4398L94.2808 28.0396Z" fill="#FBFDFA"/>
<path d="M110.126 8.78394C109.282 9.28214 108.488 9.8669 107.71 10.4631C106.414 11.3962 105.398 12.6094 104.418 13.8538C103.314 15.2895 102.237 16.7451 101.27 18.2779C100.452 19.5044 99.8065 20.8188 99.3647 22.2243C98.9951 23.4398 98.7781 24.6968 98.5573 25.9466L103.674 23.4397L113.937 17.9637L112.409 13.364L110.126 8.78394Z" fill="#E9CBA8"/>
<path d="M160.915 22.4223L158.262 23.2207L149.964 28.4777L158.044 37.8962L160.919 42.2911C161.034 41.6121 161.166 40.936 161.319 40.2639C161.55 39.0891 161.786 37.9143 161.992 36.7346C162.169 35.7276 162.373 34.7152 162.356 33.6881C162.322 32.4188 162.28 31.1495 162.179 29.8834C162.099 28.8135 162.049 27.7406 161.911 26.6759C161.793 25.8162 161.696 24.9487 161.482 24.1066C161.316 23.536 161.139 22.9705 160.915 22.4223Z" fill="#E9CBA8"/>
<path d="M115.424 52.145C115.336 52.1742 115.097 52.1639 115.159 52.2325C115.233 52.3136 115.385 52.2527 115.488 52.2153C115.547 52.1938 115.604 52.1709 115.66 52.1456C115.581 52.1455 115.503 52.1449 115.424 52.145ZM89.898 54.1141C89.8221 54.1501 89.7468 54.1876 89.6726 54.2258C89.8258 54.3279 89.9794 54.4296 90.133 54.5311C90.0541 54.3924 89.9758 54.2533 89.898 54.1141ZM109.509 55.5351C109.153 55.6745 108.799 55.8168 108.446 55.9643C107.691 56.2905 106.936 56.6206 106.198 56.9843C106.019 57.2274 105.853 57.4802 105.695 57.7379C105.895 58.5592 106.188 59.352 106.498 60.1393C106.549 60.2596 106.601 60.3799 106.652 60.5002C107.276 61.9524 107.422 63.2175 107.243 64.2295C107.269 64.2563 107.294 64.2831 107.319 64.3099C107.449 64.4634 107.556 64.5655 107.625 64.6248C107.678 64.66 107.705 64.6824 107.709 64.688C107.704 64.6865 107.674 64.6667 107.625 64.6248C107.557 64.5803 107.447 64.5142 107.285 64.4306C107.259 64.4264 107.232 64.4221 107.206 64.4178C107.197 64.4548 107.189 64.4915 107.18 64.5277C107.94 64.8998 108.706 65.2612 109.478 65.6109C110.959 66.2565 112.455 66.8681 113.951 67.4784C117.434 68.8992 118.246 71.4663 117.232 73.0936C117.241 73.186 117.248 73.2797 117.253 73.3753C117.383 73.4498 117.485 73.535 117.57 73.6257C117.746 73.5981 117.923 73.5773 118.101 73.5656C119.329 73.4849 119.126 73.5359 120.452 73.754C120.89 73.9721 121.375 74.1153 121.783 74.3793C122.262 73.8846 122.845 73.5354 123.52 73.6161C123.954 73.6678 124.358 73.8121 124.746 74.0076C125.1 72.5685 126.653 71.2293 129.501 70.9694C130.468 70.8811 131.439 70.8438 132.41 70.8117C133.282 70.7484 134.165 70.8289 135.036 70.751C135.203 70.727 135.372 70.7112 135.541 70.6986C136.171 70.2177 136.852 69.8072 137.521 69.3829C137.719 69.1073 137.927 68.8627 138.14 68.6478C138.133 68.3381 138.12 68.0284 138.094 67.7198C138.048 67.3803 137.973 67.0469 137.854 66.7248C137.621 66.0502 137.375 65.3806 137.144 64.7053C137.002 64.2698 136.831 63.8457 136.668 63.4183C136.435 63.4845 136.203 63.553 135.978 63.6431C135.836 63.8407 135.691 64.0358 135.542 64.2282C135.239 64.5998 134.911 64.9494 134.563 65.2794C134.286 65.5203 133.997 65.7489 133.681 65.9373C133.581 65.9956 133.479 66.0515 133.376 66.1065C133.274 66.2006 133.165 66.2888 133.05 66.3684C132.977 66.4131 132.907 66.461 132.833 66.5025C132.516 66.6796 132.164 66.7899 131.807 66.8448C131.602 66.8665 131.403 66.8738 131.205 66.8653C130.902 66.8891 130.597 66.8836 130.295 66.8333C130.066 66.7918 129.97 66.7809 129.744 66.7152C129.419 66.6204 129.112 66.4695 128.822 66.2949C128.408 66.0204 128.026 65.705 127.684 65.3433C127.381 65.0117 127.093 64.666 126.81 64.3169C126.461 63.8769 126.111 63.4359 125.797 62.9699C125.506 62.5367 125.221 62.0999 124.966 61.644C124.78 61.3041 124.592 60.961 124.469 60.5921C124.366 60.2846 124.339 60.0183 124.364 59.7989C124.357 59.7987 124.348 59.7985 124.34 59.7982C123.945 59.8248 123.551 59.853 123.156 59.8883C123.086 60.2316 122.761 60.5822 122.13 60.7569C121.957 60.8048 121.784 60.8544 121.613 60.9089C121.105 61.0684 120.602 61.2486 120.076 61.3457C119.429 61.4696 118.775 61.5599 118.114 61.5571C117.289 61.5747 116.463 61.5711 115.641 61.4837C114.748 61.379 113.855 61.2415 113 60.9466C112.269 60.692 111.528 60.4107 110.951 59.8742C110.576 59.5202 110.228 59.138 109.984 58.6786C109.773 58.2844 109.58 57.8799 109.505 57.4338C109.435 57.0047 109.408 56.5738 109.451 56.1398C109.465 55.9381 109.481 55.7356 109.509 55.5351ZM128.694 60.0538C128.769 60.1752 128.849 60.2937 128.931 60.4095C128.945 60.424 128.956 60.4415 128.973 60.453C128.974 60.4484 128.978 60.4316 128.983 60.4242L128.984 60.4236L128.985 60.4223L128.986 60.421H128.987L128.989 60.4204C129.084 60.4539 129.117 60.4675 129.122 60.4715V60.4727C129.116 60.473 129.085 60.4646 129.07 60.4606C129.08 60.4635 129.102 60.4702 129.142 60.4817C129.501 60.5587 129.864 60.6164 130.23 60.6599C129.92 60.552 129.612 60.4385 129.306 60.3182C129.092 60.2343 128.889 60.1461 128.694 60.0538ZM117.762 73.8701C117.813 73.9448 117.861 74.0203 117.912 74.0937C118.07 74.0998 118.231 74.1117 118.395 74.1275C118.379 73.8547 118.062 73.8674 117.762 73.8701ZM83.862 77.3004C84.4446 83.1856 85.5493 87.836 85.5493 87.836L99.9617 96.8165L114.592 102.512L140.141 103.826L149.094 98.569C149.094 98.569 150.61 95.8705 151.862 90.8633C150.303 91.1087 148.729 91.2313 147.148 91.2599C145.019 91.2926 142.891 91.2525 140.763 91.1553C138.555 91.0506 136.35 90.8874 134.147 90.6992C132.156 90.5189 130.171 90.2833 128.18 90.1059C126.429 89.9384 124.681 89.7338 122.941 89.4755C122.01 89.3503 121.079 89.2285 120.151 89.0885C120.664 90.5434 120.426 91.6766 118.184 91.5225C116.857 91.4313 115.552 91.1475 114.354 90.5466C113.294 90.0145 112.244 89.4582 111.304 88.7251C110.563 88.1623 109.851 87.5668 109.178 86.9234C109.155 86.9015 109.132 86.8795 109.11 86.8576C108.808 86.7889 108.507 86.7197 108.206 86.6501C105.918 86.1201 103.621 85.618 101.361 84.9709C98.9667 84.2874 96.5961 83.5163 94.2714 82.62C92.2696 81.7981 90.2964 80.9119 88.3963 79.871C86.8736 79.0341 85.3618 78.1776 83.862 77.3004Z" fill="#DEDFDA"/>
<path d="M51.125 61.3415L49.5211 66.3704L50.6125 69.8749L51.9229 75.1319C51.9229 75.1319 53.8237 77.0385 56.6912 78.3304C56.4508 77.8398 56.2376 77.3355 56.059 76.8155C55.6626 75.7183 55.2989 74.6092 55.002 73.4803C54.6942 72.4005 54.3645 71.3271 54.0609 70.246C53.6676 68.9676 53.2417 67.7004 52.776 66.4466C52.3184 65.1912 51.8675 63.9333 51.5103 62.6445C51.3797 62.2109 51.2514 61.7763 51.125 61.3415Z" fill="#DFDFDA"/>
<path d="M174.197 68.2429L174.173 68.2607C174.172 68.2671 174.172 68.2734 174.171 68.2799C174.17 68.2895 174.17 68.2997 174.168 68.3092C174.178 68.2871 174.189 68.2655 174.198 68.2441L174.197 68.2429ZM169.863 72.4831L169.845 72.5042V72.5667C169.85 72.5394 169.857 72.5119 169.863 72.4831ZM169.763 74.5683L169.584 75.2415C169.653 75.149 169.722 75.0563 169.791 74.9637C169.785 74.8319 169.774 74.7002 169.763 74.5683ZM191.886 82.1839C191.736 82.2774 191.549 82.3567 191.327 82.4132C190.837 82.5376 190.347 82.6621 189.862 82.8015C189.553 82.9291 189.248 83.0682 188.944 83.2071C188.464 83.432 187.988 83.6673 187.516 83.9077C186.967 84.1712 186.447 84.4864 185.927 84.8019C185.309 85.1748 184.728 85.6092 184.161 86.0556C183.694 86.4242 183.301 86.8704 182.942 87.3426C182.597 87.8284 182.297 88.344 181.975 88.8447C181.687 89.2831 181.343 89.677 180.971 90.0435C183.445 89.9707 185.349 89.5887 185.349 89.5887L188.844 85.4272L191.901 82.5792L191.886 82.1839Z" fill="#DEDFDA"/>
<path d="M111.95 72.3535C111.332 72.7794 109.749 74.2121 109.595 75.606C109.441 76.9998 109.633 76.8063 109.595 79.2456C109.556 81.685 109.479 80.1749 109.904 82.8853C110.328 85.5957 109.749 85.3246 110.714 86.5638C111.679 87.8028 110.56 87.8028 111.371 88.3449C112.181 88.8869 112.683 89.5065 113.455 89.7775C114.227 90.0486 114.536 90.4745 115.733 90.4745C116.929 90.4745 117.586 90.4745 118.512 90.397C119.438 90.3195 120.249 90.2808 121.253 89.5064C122.256 88.732 122.565 89.3128 123.453 87.5704C124.341 85.8279 124.65 86.3314 125.152 84.434C125.653 82.5367 126.117 81.2202 126.58 79.4778C127.043 77.7354 127.777 76.2254 126.657 75.1024C125.538 73.9795 124.92 73.7085 121.639 72.8953C118.358 72.0821 114.999 71.8886 113.725 71.8886C112.451 71.8886 111.95 72.3535 111.95 72.3535Z" fill="#E17990"/>
<path d="M187.468 73.849C187.468 73.849 181.984 74.5542 183.355 76.7757C184.726 78.9971 186.589 74.1664 188.663 73.9548C190.737 73.7432 187.468 73.849 187.468 73.849Z" fill="#0C3618"/>
<path d="M182.367 69.7458C182.367 69.7458 176.883 70.451 178.254 72.6724C179.625 74.8939 181.488 70.0631 183.562 69.8515C185.636 69.64 182.367 69.7458 182.367 69.7458Z" fill="#0C3618"/>
<path d="M54.4567 60.3453C54.4567 60.3453 59.3998 62.8294 57.3738 64.4713C55.3478 66.1132 55.1816 60.9362 53.2939 60.0488C51.4063 59.1614 54.4567 60.3453 54.4567 60.3453Z" fill="#0C3618"/>
<path d="M60.6803 58.9215C60.6803 58.9215 65.6234 61.4056 63.5973 63.0475C61.5713 64.6895 61.4051 59.5124 59.5175 58.625C57.6298 57.7376 60.6803 58.9215 60.6803 58.9215Z" fill="#0C3618"/>
<path d="M167.273 177.234L166.141 175.312L168.115 173.303L164.922 172.779L163.877 170.334L162.919 173.012L159.871 174.235L162.193 175.662L162.368 178.922L164.487 176.098L167.273 177.234Z" fill="#FCF086"/>
<path d="M172.078 157.953L170.946 156.032L172.92 154.023L169.727 153.499L168.682 151.053L167.724 153.732L164.677 154.955L166.999 156.381L167.173 159.642L169.292 156.818L172.078 157.953Z" fill="#FCF086"/>
<path d="M150.688 171.536L149.556 169.615L151.53 167.606L148.337 167.082L147.292 164.636L146.334 167.315L143.287 168.537L145.609 169.964L145.783 173.225L147.902 170.401L150.688 171.536Z" fill="#FCF086"/>
<path d="M131.467 174.169L130.335 172.247L132.309 170.238L129.116 169.714L128.071 167.269L127.113 169.947L124.065 171.17L126.387 172.596L126.562 175.857L128.681 173.033L131.467 174.169Z" fill="#FCF086"/>
<path d="M127.968 154.011L126.835 152.089L128.809 150.08L125.616 149.556L124.571 147.111L123.614 149.789L120.566 151.012L122.888 152.439L123.062 155.699L125.181 152.875L127.968 154.011Z" fill="#FCF086"/>
<path d="M111.383 171.969L110.251 170.047L112.225 168.038L109.032 167.514L107.987 165.069L107.029 167.747L103.981 168.97L106.303 170.397L106.478 173.657L108.597 170.833L111.383 171.969Z" fill="#FCF086"/>
<path d="M89.1058 176.789L87.9738 174.867L89.9475 172.858L86.7547 172.334L85.7097 169.889L84.7519 172.567L81.7042 173.79L84.0263 175.217L84.2006 178.477L86.3195 175.653L89.1058 176.789Z" fill="#FCF086"/>
<path d="M63.7729 167.594L62.6409 165.672L64.6147 163.663L61.4218 163.139L60.3769 160.693L59.4191 163.372L56.3714 164.595L58.6935 166.021L58.8677 169.282L60.9866 166.458L63.7729 167.594Z" fill="#FCF086"/>
<path d="M63.7729 167.594L62.6409 165.672L64.6147 163.663L61.4218 163.139L60.3769 160.693L59.4191 163.372L56.3714 164.595L58.6935 166.021L58.8677 169.282L60.9866 166.458L63.7729 167.594Z" fill="#FCF086"/>
<path d="M62.027 151.391L60.895 149.469L62.8687 147.46L59.6759 146.936L58.631 144.49L57.6731 147.169L54.6254 148.392L56.9475 149.818L57.1218 153.079L59.2407 150.255L62.027 151.391Z" fill="#FCF086"/>
<path d="M155.272 159.053L154.14 157.132L156.114 155.123L152.921 154.599L151.876 152.153L150.918 154.832L147.87 156.055L150.192 157.481L150.367 160.742L152.485 157.918L155.272 159.053Z" fill="#FCF086"/>
<path d="M220.797 153.9C220.797 153.9 222.959 152.196 223.962 152.273C224.966 152.351 226.047 152.196 226.819 152.506C227.591 152.815 229.83 153.822 229.907 154.209C229.984 154.597 230.062 155.526 230.062 155.991C230.062 156.455 230.602 159.243 230.37 159.553C230.139 159.863 228.595 161.411 228.595 161.411L226.356 162.65L222.727 162.805C222.727 162.805 220.874 160.947 220.797 160.637C220.72 160.327 219.948 158.856 219.948 158.546C219.948 158.236 220.797 153.9 220.797 153.9Z" fill="#F7BC18"/>
<path d="M214.599 57.6918C214.599 57.6918 217.784 55.3505 219.262 55.4569C220.741 55.5634 222.333 55.3504 223.47 55.7761C224.608 56.2018 227.906 57.5854 228.019 58.1175C228.133 58.6496 228.247 59.9266 228.247 60.5652C228.247 61.2038 229.043 65.035 228.702 65.4607C228.361 65.8864 226.086 68.0149 226.086 68.0149L222.788 69.7176L217.443 69.9304C217.443 69.9304 214.713 67.3763 214.599 66.9506C214.486 66.525 213.348 64.5029 213.348 64.0772C213.348 63.6515 214.599 57.6918 214.599 57.6918Z" fill="#F7BC18"/>
<path d="M26.2234 44.0621C26.2234 44.0621 29.4079 41.7207 30.8863 41.8271C32.3648 41.9336 33.9571 41.7206 35.0943 42.1464C36.2317 42.5721 39.5298 43.9557 39.6435 44.4877C39.7571 45.0198 39.871 46.2969 39.871 46.9355C39.871 47.574 40.6672 51.4053 40.3259 51.831C39.9847 52.2567 37.7101 54.3851 37.7101 54.3851L34.4119 56.0878L29.0666 56.3007C29.0666 56.3007 26.3371 53.7466 26.2233 53.3209C26.1097 52.8952 24.9723 50.8732 24.9723 50.4475C24.9723 50.0218 26.2234 44.0621 26.2234 44.0621Z" fill="#F7BC18"/>
<path d="M10.9461 136.325C10.9461 136.325 13.3661 134.545 14.4897 134.626C15.6133 134.707 16.8234 134.545 17.6876 134.869C18.5519 135.193 21.0585 136.244 21.1449 136.648C21.2312 137.053 21.3178 138.023 21.3178 138.509C21.3178 138.994 21.9228 141.905 21.6635 142.229C21.4042 142.552 19.6756 144.17 19.6756 144.17L17.169 145.464L13.1068 145.626C13.1068 145.626 11.0325 143.685 10.946 143.361C10.8596 143.038 9.99523 141.501 9.99523 141.178C9.99523 140.854 10.9461 136.325 10.9461 136.325Z" fill="#F7BC18"/>
<path d="M191.287 36.1237C191.287 36.1237 193.313 34.6341 194.254 34.7018C195.195 34.7696 196.208 34.634 196.931 34.9049C197.655 35.1758 199.754 36.0561 199.826 36.3946C199.898 36.7332 199.971 37.5457 199.971 37.952C199.971 38.3582 200.477 40.796 200.26 41.0667C200.043 41.3376 198.596 42.6919 198.596 42.6919L196.497 43.7753L193.096 43.9107C193.096 43.9107 191.36 42.2856 191.287 42.0148C191.215 41.7439 190.491 40.4574 190.491 40.1865C190.491 39.9156 191.287 36.1237 191.287 36.1237Z" fill="#90E84B"/>
<path d="M66.2237 20.3262C66.2237 20.3262 68.2498 18.8365 69.1905 18.9043C70.1312 18.972 71.1443 18.8365 71.8678 19.1074C72.5915 19.3783 74.6899 20.2585 74.7623 20.5971C74.8346 20.9356 74.907 21.7482 74.907 22.1544C74.907 22.5607 75.4136 24.9984 75.1964 25.2692C74.9794 25.5401 73.5321 26.8943 73.5321 26.8943L71.4336 27.9777L68.0327 28.1132C68.0327 28.1132 66.2959 26.488 66.2236 26.2172C66.1513 25.9464 65.4276 24.6599 65.4276 24.3889C65.4276 24.1181 66.2237 20.3262 66.2237 20.3262Z" fill="#90E84B"/>
<path d="M17.0218 91.7327C17.0218 91.7327 18.7931 90.3934 19.6156 90.4543C20.4379 90.5152 21.3237 90.3934 21.9563 90.6369C22.5889 90.8805 24.4235 91.6719 24.4867 91.9763C24.5499 92.2807 24.6132 93.0113 24.6132 93.3766C24.6132 93.7419 25.0561 95.9336 24.8663 96.1772C24.6765 96.4207 23.4113 97.6383 23.4113 97.6383L21.5767 98.6124L18.6034 98.7341C18.6034 98.7341 17.0852 97.273 17.0219 97.0294C16.9586 96.7859 16.326 95.6291 16.326 95.3857C16.326 95.1421 17.0218 91.7327 17.0218 91.7327Z" fill="#90E84B"/>
<defs>
<linearGradient id="paint0_linear_1_538" x1="129.261" y1="181.844" x2="113.518" y2="2.41247" gradientUnits="userSpaceOnUse">
<stop offset="0.31412" stop-color="#31E0E7"/>
<stop offset="0.57493" stop-color="#DAFAEE"/>
</linearGradient>
<linearGradient id="paint1_linear_1_538" x1="147.571" y1="261.672" x2="107.571" y2="9.91557" gradientUnits="userSpaceOnUse">
<stop offset="0.40346" stop-color="#0C9D40"/>
<stop offset="0.54467" stop-color="#AAE540"/>
</linearGradient>
<linearGradient id="paint2_linear_1_538" x1="49.3926" y1="171.82" x2="49.3926" y2="226.102" gradientUnits="userSpaceOnUse">
<stop offset="0.39049" stop-color="#FAF85B"/>
<stop offset="0.6268" stop-color="#19C841"/>
</linearGradient>
<linearGradient id="paint3_linear_1_538" x1="148.544" y1="274.797" x2="148.544" y2="122.569" gradientUnits="userSpaceOnUse">
<stop offset="0.46254" stop-color="#FDC019"/>
<stop offset="0.53602" stop-color="#FAF7B5"/>
</linearGradient>
</defs>
</svg>
