<svg width="356" height="88" viewBox="0 0 356 88" fill="none" xmlns="http://www.w3.org/2000/svg">
<mask id="mask0_1_1009" style="mask-type:alpha" maskUnits="userSpaceOnUse" x="0" y="0" width="356" height="88">
<rect width="356" height="88" rx="25" fill="black"/>
</mask>
<g mask="url(#mask0_1_1009)">
<g filter="url(#filter0_f_1_1009)">
<path d="M277.5 -36L299.39 29.6434H370.228L312.919 70.2132L334.809 135.857L277.5 95.2868L220.191 135.857L242.081 70.2132L184.772 29.6434H255.61L277.5 -36Z" fill="#008DD0"/>
</g>
<g filter="url(#filter1_f_1_1009)">
<path d="M177.143 71.5188L155.648 114.094L189.965 148.618L142.363 140.407L120.868 182.982L112.944 135.332L65.3423 127.12L108.046 105.882L100.122 58.2323L134.439 92.7567L177.143 71.5188Z" fill="#008DD0"/>
</g>
<g filter="url(#filter2_f_1_1009)">
<path d="M52.143 -59.4812L30.6479 -16.906L64.9647 17.6184L17.3632 9.40692L-4.13191 51.9821L-12.0562 4.33194L-59.6577 -3.87956L-16.9537 -25.1175L-24.8779 -72.7677L9.4389 -38.2433L52.143 -59.4812Z" fill="#008DD0"/>
</g>
<g filter="url(#filter3_d_1_1009)">
<path d="M299.501 10.6948C282.184 10.6948 265.903 17.4463 253.658 29.7059C241.412 41.9655 234.669 58.265 234.669 75.6025C234.669 92.9401 241.413 109.24 253.658 121.5C265.903 133.759 282.184 140.511 299.501 140.511C316.819 140.511 333.099 133.759 345.344 121.5C357.59 109.24 364.333 92.9401 364.333 75.6025C364.333 58.265 357.59 41.9655 345.344 29.7059C333.099 17.4463 316.819 10.6948 299.501 10.6948Z" fill="#1D1D1B"/>
<path d="M343.25 119.404C367.412 95.2127 367.413 55.9918 343.25 31.8011C319.088 7.61036 279.913 7.61048 255.75 31.8013C231.588 55.9922 231.587 95.2132 255.75 119.404C279.912 143.595 319.087 143.594 343.25 119.404Z" fill="#008DD0"/>
<path d="M343.25 119.404C367.412 95.2127 367.413 55.9918 343.25 31.8011C319.088 7.61036 279.913 7.61048 255.75 31.8013C231.588 55.9922 231.587 95.2132 255.75 119.404C279.912 143.595 319.087 143.594 343.25 119.404Z" fill="#008DD0"/>
<path d="M353.673 97.7783C365.906 67.8226 351.566 33.611 321.645 21.3646C291.725 9.11817 257.553 23.4745 245.321 53.4302C233.089 83.386 247.428 117.598 277.349 129.844C307.27 142.09 341.441 127.734 353.673 97.7783Z" fill="#0A477E"/>
<path d="M339.662 115.812C361.844 93.6049 361.844 57.6001 339.662 35.393C317.481 13.186 281.519 13.186 259.338 35.393C237.157 57.6001 237.157 93.6049 259.338 115.812C281.519 138.019 317.481 138.019 339.662 115.812Z" fill="#70C8DD"/>
<path d="M327.9 26.3468C319.546 21.5079 309.847 18.7372 299.501 18.7372V75.6025L327.9 26.3468Z" fill="#F2E6B5"/>
<path d="M299.501 18.7375C289.155 18.7375 279.457 21.5082 271.102 26.3471L299.501 75.6032V18.7375Z" fill="#70C8DD"/>
<path d="M356.3 75.6028V75.6024C356.3 65.2451 353.532 55.5348 348.7 47.1711L299.501 75.6028H356.3Z" fill="#E83A55"/>
<path d="M271.102 26.3467C262.48 31.3406 255.29 38.5381 250.302 47.1708L299.501 75.6024L271.102 26.3467Z" fill="#F6A000"/>
<path d="M250.302 47.1707C245.47 55.5344 242.702 65.2447 242.702 75.602L299.501 75.6024L250.302 47.1707Z" fill="#FFEC55"/>
<path d="M348.699 47.1708C343.711 38.5381 336.522 31.3402 327.899 26.3467L299.501 75.6028L348.699 47.1708Z" fill="#009A9A"/>
<path d="M327.9 124.859C336.522 119.865 343.711 112.667 348.7 104.034L299.501 75.6027L327.9 124.859Z" fill="#B14191"/>
<path d="M299.501 132.468C309.847 132.468 319.546 129.697 327.9 124.859L299.501 75.6027V132.468Z" fill="#83C8B8"/>
<path d="M299.501 75.6027L348.7 104.034C353.532 95.6703 356.3 85.96 356.3 75.6027H299.501Z" fill="#F6A000"/>
<path d="M250.302 104.034C255.29 112.667 262.48 119.865 271.102 124.859L299.501 75.6027L250.302 104.034Z" fill="#009DD0"/>
<path d="M271.102 124.859C279.457 129.697 289.155 132.468 299.501 132.468V75.6027L271.102 124.859Z" fill="#DE97BD"/>
<path d="M242.702 75.6027C242.702 85.9604 245.47 95.6703 250.302 104.034L299.501 75.6027H242.702Z" fill="#E73186"/>
<path d="M299.924 19.1624C309.546 19.2345 319 21.7673 327.322 26.5026L299.924 74.0225V19.1624ZM299.501 18.7375V75.6028L327.9 26.3468C319.546 21.5079 309.847 18.7375 299.501 18.7375Z" fill="white"/>
<path d="M299.078 19.1624V74.0225L271.68 26.5026C280.001 21.7673 289.456 19.2341 299.078 19.1624ZM299.501 18.7375C289.155 18.7375 279.457 21.5083 271.102 26.3471L299.501 75.6032V18.7375Z" fill="white"/>
<path d="M348.544 47.75C353.274 56.0807 355.803 65.5465 355.875 75.1797H301.079L348.544 47.75ZM348.699 47.1709L299.501 75.6026H356.299C356.3 65.2456 353.532 55.535 348.699 47.1709Z" fill="white"/>
<path d="M270.949 26.9263L298.346 74.4466L250.882 47.0169C255.751 38.7342 262.676 31.8012 270.949 26.9263ZM271.102 26.3468C262.48 31.3407 255.29 38.5381 250.302 47.1708L299.501 75.6025L271.102 26.3468Z" fill="white"/>
<path d="M250.458 47.75L297.922 75.1797L243.127 75.1793C243.199 65.5465 245.729 56.0807 250.458 47.75ZM250.302 47.1709C245.47 55.5346 242.702 65.2449 242.702 75.6022L299.501 75.6026L250.302 47.1709Z" fill="white"/>
<path d="M328.053 26.9263C336.326 31.8008 343.251 38.7346 348.12 47.0165L300.656 74.4466L328.053 26.9263ZM327.9 26.3468L299.501 75.6029L348.7 47.1712C343.712 38.5381 336.522 31.3407 327.9 26.3468Z" fill="white"/>
<path d="M300.656 76.7591L348.12 104.189C343.251 112.471 336.326 119.404 328.053 124.279L300.656 76.7591ZM299.501 75.6028L327.9 124.859C336.522 119.865 343.711 112.667 348.7 104.034L299.501 75.6028Z" fill="white"/>
<path d="M299.924 77.1831L327.322 124.703C319 129.438 309.546 131.971 299.924 132.043V77.1831ZM299.501 75.6028V132.468C309.847 132.468 319.546 129.697 327.9 124.859L299.501 75.6028Z" fill="white"/>
<path d="M355.875 76.0261C355.803 85.6596 353.273 95.1251 348.544 103.456L301.079 76.0261H355.875ZM356.3 75.6028H299.501L348.7 104.034C353.532 95.6704 356.3 85.9605 356.3 75.6028Z" fill="white"/>
<path d="M298.346 76.7591L270.948 124.279C262.675 119.404 255.751 112.471 250.881 104.189L298.346 76.7591ZM299.501 75.6028L250.302 104.034C255.29 112.667 262.48 119.865 271.102 124.859L299.501 75.6028Z" fill="white"/>
<path d="M299.078 77.1831V132.043C289.456 131.971 280.002 129.438 271.68 124.703L299.078 77.1831ZM299.501 75.6028L271.102 124.859C279.457 129.697 289.155 132.468 299.501 132.468V75.6028Z" fill="white"/>
<path d="M297.922 76.0261L250.458 103.456C245.729 95.1247 243.199 85.6592 243.127 76.0257H297.922V76.0261ZM299.501 75.6028H242.702C242.702 85.9605 245.47 95.6704 250.302 104.034L299.501 75.6028Z" fill="white"/>
<path d="M322.861 75.6463C322.861 88.5633 312.402 99.0346 299.501 99.0346C286.599 99.0346 276.14 88.5629 276.14 75.6463C276.14 62.7296 286.599 52.2587 299.501 52.2587C312.402 52.2587 322.861 62.7296 322.861 75.6463Z" fill="#706F6F"/>
<path d="M321.346 75.6025C321.346 87.6813 311.565 97.4738 299.501 97.4738C287.436 97.4738 277.656 87.6813 277.656 75.6025C277.656 63.5236 287.436 53.7316 299.501 53.7316C311.566 53.7316 321.346 63.5236 321.346 75.6025Z" fill="#1D3B79"/>
<path d="M321.324 76.4932C321.336 76.1973 321.346 75.901 321.346 75.6025C321.346 63.5236 311.565 53.7316 299.501 53.7316C287.436 53.7316 277.656 63.5236 277.656 75.6025C277.656 75.901 277.666 76.1973 277.678 76.4932H321.324Z" fill="#00549C"/>
<path d="M316.837 75.6025C316.837 85.1881 309.075 92.9589 299.501 92.9589C289.926 92.9589 282.165 85.1881 282.165 75.6025C282.165 66.0177 289.926 58.2469 299.501 58.2469C309.075 58.2466 316.837 66.0177 316.837 75.6025Z" fill="#241954"/>
<path d="M315.568 75.6024C315.568 84.4865 308.374 91.6885 299.501 91.6885C290.628 91.6885 283.434 84.4865 283.434 75.6024C283.434 66.7187 290.628 59.5163 299.501 59.5163C308.374 59.5163 315.568 66.7183 315.568 75.6024Z" fill="#6B9ED5"/>
<path d="M299.841 62.2637L303.589 69.8687L311.972 71.0879L305.906 77.0071L307.338 85.3661L299.841 81.4195L292.343 85.3661L293.775 77.0071L287.709 71.0879L296.092 69.8687L299.841 62.2637Z" fill="#F9B105"/>
<g opacity="0.4">
<path d="M299.841 75.0338H299.84V75.0347H299.841V75.0338Z" fill="#F39700"/>
<path d="M303.589 69.8687L299.841 62.2637V75.0338L303.589 69.8687Z" fill="#D95915"/>
<path d="M299.841 75.0342V75.0345L305.906 77.0071L311.972 71.088L299.841 75.0342Z" fill="#D95915"/>
<path d="M299.841 81.4195L307.338 85.3661L299.841 75.0345V81.4195Z" fill="#D95915"/>
<path d="M293.775 77.007L292.343 85.3661L299.841 75.0345L293.775 77.007Z" fill="#D95915"/>
<path d="M299.841 75.0341L296.092 69.8687L287.709 71.0879L299.841 75.0345V75.0341Z" fill="#D95915"/>
</g>
<path opacity="0.5" d="M299.726 62.7434L299.518 71.5718L299.777 74.7501L299.769 72.7457L299.726 62.7434Z" fill="white"/>
<path opacity="0.5" d="M300.209 74.7501L311.494 71.1221L303.28 73.5413L300.209 74.7501Z" fill="white"/>
<path opacity="0.5" d="M300.105 75.2225L307.146 84.8396L302.659 78.3091L300.105 75.2225Z" fill="white"/>
<path opacity="0.5" d="M299.714 75.3611L292.892 84.9432L297.689 78.6204L299.714 75.3611Z" fill="white"/>
<path opacity="0.5" d="M288.372 71.3987L299.484 75.0268L296.274 74.3011L288.372 71.3987Z" fill="white"/>
<path d="M278 75.9643C278 75.9643 278.951 58.8551 294.173 55.1867C294.173 55.1867 304.32 52.2237 311.509 58.291C311.509 58.291 285.505 46.2263 278 75.9643Z" fill="#008FCD"/>
<path opacity="0.6" d="M298.19 60.7249C298.19 60.7249 290.156 61.3596 285.717 70.0376C285.717 70.0376 281.066 79.8795 290.579 87.9227C290.579 87.9227 286.144 81.6014 290.791 73.8476C295.865 65.3814 307.598 64.2171 312.883 67.8152C312.883 67.8152 308.126 59.455 298.19 60.7249Z" fill="#F0F8FD"/>
<path d="M299.134 13.2785H291.611L299.501 36.4903L307.392 13.2785H299.134Z" fill="#706F6F"/>
<path d="M299.501 33.9503L291.011 8.97473H307.991L299.501 33.9503Z" fill="#E53818"/>
<path d="M299.501 33.9503L299.106 8.97479H307.991L299.501 33.9503Z" fill="#AC2E0F"/>
<path d="M291.953 10.0332L298.824 30.564L298.295 26.9655L291.953 10.0332Z" fill="#E85045"/>
<path d="M298.824 2.08698L300.904 6.30796L305.557 6.98491L302.191 10.2699L302.985 14.91L298.824 12.7198L294.663 14.91L295.457 10.2699L292.09 6.98491L296.744 6.30796L298.824 2.08698Z" fill="#F9B105"/>
<g opacity="0.4">
<path d="M300.904 6.30796L298.824 2.08698V9.17504L300.904 6.30796Z" fill="#D95915"/>
<path d="M298.824 9.17499L302.191 10.2699L305.557 6.98486L298.824 9.17499Z" fill="#D95915"/>
<path d="M298.824 12.7198L302.985 14.9099L298.824 9.17499V12.7198Z" fill="#D95915"/>
<path d="M295.457 10.2699L294.663 14.9099L298.824 9.17499L295.457 10.2699Z" fill="#D95915"/>
<path d="M298.824 9.175L296.744 6.30792L292.09 6.98488L298.824 9.175Z" fill="#D95915"/>
</g>
<path opacity="0.5" d="M298.76 2.35333L298.645 7.25357L298.788 9.01734L298.783 7.9052L298.76 2.35333Z" fill="white"/>
<path opacity="0.5" d="M299.028 9.01725L305.292 7.00366L300.733 8.34644L299.028 9.01725Z" fill="white"/>
<path opacity="0.5" d="M298.971 9.27942L302.879 14.6179L300.388 10.9929L298.971 9.27942Z" fill="white"/>
<path opacity="0.5" d="M298.754 9.35651L294.967 14.675L297.63 11.1659L298.754 9.35651Z" fill="white"/>
<path opacity="0.5" d="M292.458 7.1568L298.626 9.17116L296.843 8.76821L292.458 7.1568Z" fill="white"/>
</g>
</g>
<defs>
<filter id="filter0_f_1_1009" x="159.772" y="-61" width="235.456" height="221.857" filterUnits="userSpaceOnUse" color-interpolation-filters="sRGB">
<feFlood flood-opacity="0" result="BackgroundImageFix"/>
<feBlend mode="normal" in="SourceGraphic" in2="BackgroundImageFix" result="shape"/>
<feGaussianBlur stdDeviation="12.5" result="effect1_foregroundBlur_1_1009"/>
</filter>
<filter id="filter1_f_1_1009" x="40.3423" y="33.2323" width="174.622" height="174.75" filterUnits="userSpaceOnUse" color-interpolation-filters="sRGB">
<feFlood flood-opacity="0" result="BackgroundImageFix"/>
<feBlend mode="normal" in="SourceGraphic" in2="BackgroundImageFix" result="shape"/>
<feGaussianBlur stdDeviation="12.5" result="effect1_foregroundBlur_1_1009"/>
</filter>
<filter id="filter2_f_1_1009" x="-84.6577" y="-97.7677" width="174.622" height="174.75" filterUnits="userSpaceOnUse" color-interpolation-filters="sRGB">
<feFlood flood-opacity="0" result="BackgroundImageFix"/>
<feBlend mode="normal" in="SourceGraphic" in2="BackgroundImageFix" result="shape"/>
<feGaussianBlur stdDeviation="12.5" result="effect1_foregroundBlur_1_1009"/>
</filter>
<filter id="filter3_d_1_1009" x="203.669" y="-24.913" width="191.664" height="200.424" filterUnits="userSpaceOnUse" color-interpolation-filters="sRGB">
<feFlood flood-opacity="0" result="BackgroundImageFix"/>
<feColorMatrix in="SourceAlpha" type="matrix" values="0 0 0 0 0 0 0 0 0 0 0 0 0 0 0 0 0 0 127 0" result="hardAlpha"/>
<feOffset dy="4"/>
<feGaussianBlur stdDeviation="15.5"/>
<feComposite in2="hardAlpha" operator="out"/>
<feColorMatrix type="matrix" values="0 0 0 0 0 0 0 0 0 0 0 0 0 0 0 0 0 0 0.64 0"/>
<feBlend mode="normal" in2="BackgroundImageFix" result="effect1_dropShadow_1_1009"/>
<feBlend mode="normal" in="SourceGraphic" in2="effect1_dropShadow_1_1009" result="shape"/>
</filter>
</defs>
</svg>
