<svg width="356" height="88" viewBox="0 0 356 88" fill="none" xmlns="http://www.w3.org/2000/svg">
<mask id="mask0_40_9" style="mask-type:alpha" maskUnits="userSpaceOnUse" x="0" y="0" width="356" height="88">
<rect width="356" height="88" rx="25" fill="black"/>
</mask>
<g mask="url(#mask0_40_9)">
<g filter="url(#filter0_f_40_9)">
<path d="M277.5 -36L299.39 29.6434H370.228L312.919 70.2132L334.809 135.857L277.5 95.2868L220.191 135.857L242.081 70.2132L184.772 29.6434H255.61L277.5 -36Z" fill="#575757"/>
</g>
<g filter="url(#filter1_f_40_9)">
<path d="M140.143 -68.4812L118.648 -25.906L152.965 8.61843L105.363 0.406921L83.8681 42.9821L75.9438 -4.66806L28.3423 -12.8796L71.0463 -34.1175L63.1221 -81.7677L97.4389 -47.2433L140.143 -68.4812Z" fill="#575757"/>
</g>
<g filter="url(#filter2_f_40_9)">
<path d="M74.143 63.5188L52.6479 106.094L86.9647 140.618L39.3632 132.407L17.8681 174.982L9.94381 127.332L-37.6577 119.12L5.04634 97.8825L-2.87794 50.2323L31.4389 84.7567L74.143 63.5188Z" fill="#575757"/>
</g>
</g>
<defs>
<filter id="filter0_f_40_9" x="159.772" y="-61" width="235.456" height="221.857" filterUnits="userSpaceOnUse" color-interpolation-filters="sRGB">
<feFlood flood-opacity="0" result="BackgroundImageFix"/>
<feBlend mode="normal" in="SourceGraphic" in2="BackgroundImageFix" result="shape"/>
<feGaussianBlur stdDeviation="12.5" result="effect1_foregroundBlur_40_9"/>
</filter>
<filter id="filter1_f_40_9" x="3.34228" y="-106.768" width="174.622" height="174.75" filterUnits="userSpaceOnUse" color-interpolation-filters="sRGB">
<feFlood flood-opacity="0" result="BackgroundImageFix"/>
<feBlend mode="normal" in="SourceGraphic" in2="BackgroundImageFix" result="shape"/>
<feGaussianBlur stdDeviation="12.5" result="effect1_foregroundBlur_40_9"/>
</filter>
<filter id="filter2_f_40_9" x="-62.6577" y="25.2323" width="174.622" height="174.75" filterUnits="userSpaceOnUse" color-interpolation-filters="sRGB">
<feFlood flood-opacity="0" result="BackgroundImageFix"/>
<feBlend mode="normal" in="SourceGraphic" in2="BackgroundImageFix" result="shape"/>
<feGaussianBlur stdDeviation="12.5" result="effect1_foregroundBlur_40_9"/>
</filter>
</defs>
</svg>
