<svg width="19" height="13" viewBox="0 0 19 13" fill="none" xmlns="http://www.w3.org/2000/svg">
<path d="M16.2857 0H2.71429C1.99465 0.000752722 1.30472 0.274922 0.795864 0.762353C0.287007 1.24978 0.000785809 1.91067 0 2.6V10.4C0.000785809 11.0893 0.287007 11.7502 0.795864 12.2376C1.30472 12.7251 1.99465 12.9992 2.71429 13H16.2857C17.0053 12.9992 17.6953 12.7251 18.2041 12.2376C18.713 11.7502 18.9992 11.0893 19 10.4V2.6C18.9992 1.91067 18.713 1.24978 18.2041 0.762353C17.6953 0.274922 17.0053 0.000752722 16.2857 0ZM14.2712 7.8C14.0028 7.8 13.7404 7.72376 13.5172 7.58091C13.294 7.43806 13.1201 7.23503 13.0174 6.99749C12.9146 6.75994 12.8878 6.49856 12.9401 6.24638C12.9925 5.99421 13.1218 5.76257 13.3116 5.58076C13.5014 5.39895 13.7432 5.27514 14.0064 5.22498C14.2697 5.17482 14.5426 5.20056 14.7906 5.29896C15.0385 5.39735 15.2505 5.56397 15.3996 5.77776C15.5488 5.99154 15.6283 6.24288 15.6283 6.5C15.6283 6.84478 15.4854 7.17544 15.2308 7.41924C14.9763 7.66304 14.6311 7.8 14.2712 7.8Z" fill="white"/>
</svg>
